<svg width="6" height="5" viewBox="0 0 6 5" fill="none" xmlns="http://www.w3.org/2000/svg">
<path d="M0.13207 0.652959C0.216659 0.555019 0.331372 0.499999 0.450981 0.499999C0.570591 0.499999 0.685303 0.555019 0.769893 0.652959L3.00272 3.23897L5.23555 0.65296C5.32063 0.557795 5.43457 0.505138 5.55284 0.506328C5.67111 0.507518 5.78425 0.562461 5.86788 0.659324C5.95152 0.756186 5.99895 0.887217 5.99998 1.0242C6.00101 1.16117 5.95554 1.29314 5.87338 1.39167L3.32163 4.34704C3.23704 4.44498 3.12233 4.5 3.00272 4.5C2.88311 4.5 2.7684 4.44498 2.68381 4.34704L0.13207 1.39167C0.0475059 1.2937 5.83837e-07 1.16084 6.08058e-07 1.02231C6.32279e-07 0.883785 0.047506 0.750928 0.13207 0.652959Z" fill="#BDCD00"/>
</svg>
