<svg width="46" height="47" viewBox="0 0 46 47" fill="none" xmlns="http://www.w3.org/2000/svg">
<rect y="0.455566" width="46" height="46" rx="23" fill="#222222"/>
<path d="M13.0333 19.7388H33.0333L31.9896 31.215C31.9331 31.8362 31.6465 32.4138 31.1861 32.8345C30.7256 33.2551 30.1245 33.4885 29.5008 33.4888H16.5658C15.9421 33.4885 15.341 33.2551 14.8806 32.8345C14.4201 32.4138 14.1335 31.8362 14.0771 31.215L13.0333 19.7388Z" stroke="white" stroke-width="3" stroke-linejoin="round" />
<path d="M18.0334 22.2388V18.4888C18.0334 17.1627 18.5602 15.8909 19.4979 14.9532C20.4356 14.0156 21.7074 13.4888 23.0334 13.4888C24.3595 13.4888 25.6313 14.0156 26.569 14.9532C27.5067 15.8909 28.0334 17.1627 28.0334 18.4888V22.2388" stroke="white" stroke-width="3" stroke-linecap="round"/>
<path d="M27.3457 21.7352C27.5444 21.5608 27.8089 21.4644 28.0833 21.4663C28.3576 21.4682 28.6205 21.5683 28.8163 21.7454C29.0122 21.9225 29.1257 22.1629 29.1329 22.4156C29.1402 22.6684 29.0406 22.9139 28.8552 23.1003L23.2264 29.588C23.1296 29.6841 23.0128 29.7612 22.8829 29.8147C22.7531 29.8682 22.6128 29.897 22.4706 29.8995C22.3284 29.9019 22.1871 29.8779 22.0552 29.8288C21.9232 29.7798 21.8034 29.7067 21.7028 29.614L17.9701 26.1738C17.8661 26.0846 17.7827 25.9769 17.7249 25.8573C17.6671 25.7377 17.636 25.6086 17.6335 25.4776C17.631 25.3467 17.6571 25.2167 17.7103 25.0953C17.7635 24.9738 17.8427 24.8635 17.9432 24.7709C18.0437 24.6784 18.1633 24.6054 18.2951 24.5563C18.4268 24.5073 18.5679 24.4832 18.71 24.4855C18.8521 24.4878 18.9922 24.5165 19.122 24.5698C19.2517 24.6231 19.3686 24.6999 19.4654 24.7957L22.4195 27.5169L27.3189 21.7638L27.3457 21.7352Z" fill="#BDCD00"/>
</svg>
