<svg width="46" height="46" viewBox="0 0 46 46" fill="none" xmlns="http://www.w3.org/2000/svg">
<path d="M35.9375 43.125L32.9187 41.6875C30.475 40.5375 28.75 37.95 28.75 35.2188V25.875H43.125V35.2188C43.125 37.95 41.5438 40.5375 38.9563 41.6875L35.9375 43.125ZM31.625 28.75V35.2188C31.625 36.9438 32.6313 38.3813 34.0688 39.1L35.9375 39.9625L37.8062 39.1C39.2437 38.3813 40.25 36.8 40.25 35.2188V28.75H31.625Z" fill="#BDCD00"/>
<path d="M31.625 17.25C33.2128 17.25 34.5 15.9628 34.5 14.375C34.5 12.7872 33.2128 11.5 31.625 11.5C30.0372 11.5 28.75 12.7872 28.75 14.375C28.75 15.9628 30.0372 17.25 31.625 17.25Z" fill="#BDCD00"/>
<path d="M30.1875 2.875C23 2.875 17.25 8.625 17.25 15.8125C17.25 17.1062 17.3937 18.4 17.825 19.55L2.875 34.5V43.125H11.5L25.875 28.75L23.8625 26.7375L19.8375 30.7625L17.825 28.75L15.8125 30.7625L17.825 32.775L15.525 35.075L13.5125 33.0625L11.5 35.075L13.5125 37.0875L10.35 40.25H5.75V35.65L19.8375 21.5625L20.9875 20.4125L20.5562 18.6875C20.2688 17.6812 20.125 16.8188 20.125 15.8125C20.125 10.2062 24.5812 5.75 30.1875 5.75C35.7938 5.75 40.25 10.2062 40.25 15.8125C40.25 17.9688 39.5312 19.9813 38.3813 21.5625H41.6875C42.55 19.8375 42.9813 17.825 42.9813 15.8125C43.125 8.625 37.375 2.875 30.1875 2.875Z" fill="#BDCD00"/>
</svg>
