<svg width="24" height="25" viewBox="0 0 24 25" fill="none" xmlns="http://www.w3.org/2000/svg">
<path fill-rule="evenodd" clip-rule="evenodd" d="M15.1976 3.72004L5.11964 13.798C4.96899 13.9483 4.8702 14.1428 4.83764 14.353L4.13264 18.947C4.10885 19.1022 4.12193 19.2608 4.1708 19.41C4.21968 19.5591 4.30299 19.6947 4.41399 19.8057C4.52499 19.9167 4.66056 20 4.80973 20.0489C4.9589 20.0978 5.11748 20.1108 5.27264 20.087L9.86764 19.382C10.0778 19.3498 10.2722 19.2513 10.4226 19.101L20.5006 9.02304C20.6881 8.83552 20.7934 8.58121 20.7934 8.31604C20.7934 8.05088 20.6881 7.79657 20.5006 7.60905L16.6106 3.71904C16.4232 3.53188 16.1691 3.42676 15.9041 3.42676C15.6392 3.42676 15.3851 3.53188 15.1976 3.71904V3.72004ZM6.31664 17.904L6.76464 14.98L15.9046 5.84004L18.3796 8.31604L9.23964 17.456L6.31664 17.904Z" fill="#9DB0BA"/>
<path d="M13.4414 7.74752L14.5014 6.68652L17.7434 9.92652L16.6824 10.9875L13.4414 7.74752Z" fill="#9DB0BA"/>
</svg>
