<svg width="30" height="26" viewBox="0 0 30 26" fill="none" xmlns="http://www.w3.org/2000/svg">
<path fill-rule="evenodd" clip-rule="evenodd" d="M14.0646 3C16.4466 3 18.3846 4.99 18.3846 7.436V8.368C18.3846 8.782 18.0573 9.118 17.6542 9.118C17.251 9.118 16.9238 8.782 16.9238 8.368V7.436C16.9238 5.816 15.6412 4.5 14.0646 4.5H9.31707C7.74235 4.5 6.46077 5.816 6.46077 7.436V18.565C6.46077 20.184 7.74235 21.5 9.31707 21.5H14.0753C15.6451 21.5 16.9238 20.188 16.9238 18.576V17.633C16.9238 17.219 17.251 16.883 17.6542 16.883C18.0573 16.883 18.3846 17.219 18.3846 17.633V18.576C18.3846 21.016 16.4505 23 14.0753 23H9.31707C6.93698 23 5 21.011 5 18.565V7.436C5 4.99 6.93698 3 9.31707 3H14.0646ZM21.9334 9.554L24.7848 12.469C24.8102 12.4949 24.833 12.5219 24.8538 12.5504L24.7848 12.469C24.8193 12.5039 24.85 12.5421 24.8766 12.5828C24.8883 12.6012 24.8996 12.6203 24.9101 12.6399C24.9186 12.6552 24.9264 12.6712 24.9337 12.6875C24.9398 12.7018 24.9457 12.7162 24.9512 12.7308C24.9585 12.7498 24.965 12.7693 24.9706 12.7891C24.9748 12.8047 24.9787 12.8203 24.9822 12.836C24.9865 12.8551 24.9899 12.8743 24.9926 12.8937C24.9942 12.9063 24.9957 12.9195 24.9968 12.9328C24.999 12.9556 25 12.9777 25 13L24.995 13.062L24.993 13.1017C24.9928 13.1034 24.9926 13.1051 24.9923 13.1068L25 13C25 13.0555 24.994 13.1105 24.9824 13.1639C24.9787 13.1797 24.9748 13.1953 24.9705 13.2107C24.965 13.2307 24.9585 13.2502 24.9513 13.2695C24.9457 13.2838 24.9398 13.2982 24.9335 13.3123C24.9264 13.3288 24.9186 13.3448 24.9102 13.3605C24.8996 13.3797 24.8883 13.3988 24.8762 13.4172C24.8694 13.4282 24.8619 13.439 24.8541 13.4497C24.8309 13.481 24.8056 13.5104 24.7783 13.5377L21.9334 16.447C21.7912 16.593 21.6042 16.666 21.4182 16.666C21.2312 16.666 21.0433 16.593 20.9011 16.445C20.6167 16.151 20.6177 15.677 20.903 15.385L22.5 13.75H12.5432C12.1401 13.75 11.8128 13.414 11.8128 13C11.8128 12.586 12.1401 12.25 12.5432 12.25H22.502L20.903 10.616C20.6177 10.324 20.6157 9.85 20.9011 9.556C21.1854 9.262 21.647 9.262 21.9334 9.554Z" fill="#9DB0BA"/>
<path d="M24.7848 12.469L21.9334 9.554C21.647 9.262 21.1854 9.262 20.9011 9.556C20.6157 9.85 20.6177 10.324 20.903 10.616L22.502 12.25H12.5432C12.1401 12.25 11.8128 12.586 11.8128 13C11.8128 13.414 12.1401 13.75 12.5432 13.75H22.5L20.903 15.385C20.6177 15.677 20.6167 16.151 20.9011 16.445C21.0433 16.593 21.2312 16.666 21.4182 16.666C21.6042 16.666 21.7912 16.593 21.9334 16.447L24.7783 13.5377C24.8056 13.5104 24.8309 13.481 24.8541 13.4497C24.8619 13.439 24.8694 13.4282 24.8762 13.4172C24.8883 13.3988 24.8996 13.3797 24.9102 13.3605C24.9186 13.3448 24.9264 13.3288 24.9335 13.3123C24.9398 13.2982 24.9457 13.2838 24.9513 13.2695C24.9585 13.2502 24.965 13.2307 24.9705 13.2107C24.9748 13.1953 24.9787 13.1797 24.9824 13.1639C24.994 13.1105 25 13.0555 25 13M24.7848 12.469C24.8102 12.4949 24.833 12.5219 24.8538 12.5504L24.7848 12.469ZM24.7848 12.469C24.8193 12.5039 24.85 12.5421 24.8766 12.5828C24.8883 12.6012 24.8996 12.6203 24.9101 12.6399C24.9186 12.6552 24.9264 12.6712 24.9337 12.6875C24.9398 12.7018 24.9457 12.7162 24.9512 12.7308C24.9585 12.7498 24.965 12.7693 24.9706 12.7891C24.9748 12.8047 24.9787 12.8203 24.9822 12.836C24.9865 12.8551 24.9899 12.8743 24.9926 12.8937C24.9942 12.9063 24.9957 12.9195 24.9968 12.9328C24.999 12.9556 25 12.9777 25 13M25 13L24.995 13.062L24.993 13.1017C24.9928 13.1034 24.9926 13.1051 24.9923 13.1068L25 13ZM14.0646 3C16.4466 3 18.3846 4.99 18.3846 7.436V8.368C18.3846 8.782 18.0573 9.118 17.6542 9.118C17.251 9.118 16.9238 8.782 16.9238 8.368V7.436C16.9238 5.816 15.6412 4.5 14.0646 4.5H9.31707C7.74235 4.5 6.46077 5.816 6.46077 7.436V18.565C6.46077 20.184 7.74235 21.5 9.31707 21.5H14.0753C15.6451 21.5 16.9238 20.188 16.9238 18.576V17.633C16.9238 17.219 17.251 16.883 17.6542 16.883C18.0573 16.883 18.3846 17.219 18.3846 17.633V18.576C18.3846 21.016 16.4505 23 14.0753 23H9.31707C6.93698 23 5 21.011 5 18.565V7.436C5 4.99 6.93698 3 9.31707 3H14.0646Z" stroke="#9DB0BA" stroke-width="0.5"/>
</svg>
