<svg width="70" height="100" viewBox="0 0 70 100" fill="none" xmlns="http://www.w3.org/2000/svg">
<g clip-path="url(#clip0_34_1296)">
<path d="M64.1315 27.4662C64.2737 28.518 64.8988 30.2062 64.0539 30.9201C63.7535 31.1761 62.4545 31.3487 61.9717 31.4702C60.4773 31.8461 59.5361 32.086 57.9612 32.6478C57.395 32.8497 56.3977 33.2783 56.3417 33.5899C56.2296 34.2263 57.6968 34.9124 58.1925 35.3176C59.0532 36.0227 60.9816 37.8543 60.7374 39.3216C60.5937 40.1862 59.1725 41.3623 57.9612 41.0493C56.4983 40.6704 55.6764 38.8271 54.7223 37.9084C54.2897 37.4915 53.5296 37.1345 52.949 36.6518C52.2823 36.0988 51.6831 35.4815 50.9445 35.1596C49.9515 34.7281 48.8264 34.5115 47.7832 34.061C46.681 33.5855 45.6507 33.3734 44.5443 33.0399C43.4163 32.699 42.34 32.0846 41.4591 31.9412C40.8225 31.8359 39.3971 31.9178 39.377 31.2346C39.3583 30.6129 42.7236 29.5845 43.3875 29.3504C44.1261 29.0885 44.9337 28.7711 45.5473 28.5648C46.3347 28.3 47.0891 27.9592 47.7832 27.8582C50.2303 27.4984 52.4274 28.7214 54.955 28.4858C57.155 28.2781 59.5993 27.3301 61.5866 27.1517C62.5005 27.0697 63.6415 27.0931 64.1315 27.4662ZM47.0891 31.6267C48.1956 31.6267 48.2214 29.4704 46.7802 29.978C45.8907 30.2911 46.1982 31.6267 47.0891 31.6267Z" fill="#9DB0BA"/>
<path d="M61.7418 14.5896C61.7447 15.7892 60.0807 16.5396 59.1194 17.1804C58.5934 17.5315 58.1322 17.9411 57.6537 18.279C56.1075 19.3792 55.047 20.4032 53.1804 21.5764C51.0034 22.9487 48.8983 25.3478 45.7772 25.5819C45.2455 25.6214 44.7914 25.4824 44.3115 25.5819C43.1504 25.8189 42.1403 26.7683 40.8412 26.1319C41.2019 24.9294 42.3903 24.6295 43.0772 23.6977C43.5801 23.013 43.981 22.0533 44.4653 21.2619C45.4237 19.6981 46.2586 17.9748 47.0101 16.2368C47.434 15.2552 47.3852 14.3043 47.7042 13.175C48.0821 11.8408 48.8178 10.5212 49.3236 9.17098C49.8424 7.78853 49.9487 6.28027 50.7893 5.088C51.5696 4.98853 52.6315 5.17139 53.0252 5.71559C53.1359 6.97223 52.7967 8.71017 52.4849 10.3472C52.3139 11.2483 51.2376 14.1112 52.3312 15.0577C52.8011 15.4659 54.1705 15.362 54.9536 15.1367C55.6146 14.9465 56.6133 14.2283 57.4209 13.7236C58.2284 13.2203 59.1596 12.3323 59.9657 12.3894C60.7043 12.4435 61.7404 13.7601 61.7418 14.5896ZM48.3235 24.0122C48.7215 23.939 49.3308 23.5148 49.1713 22.5976C49.0535 21.929 48.4816 21.692 47.9369 21.7344C46.0818 21.8778 46.8463 24.2857 48.3235 24.0122Z" fill="#9DB0BA"/>
<path d="M56.1894 45.6808C56.5098 46.7385 55.7051 48.5861 54.8013 48.7427C53.9578 48.889 53.1933 47.8518 52.6415 47.2505C51.1888 46.4269 50.0191 45.3151 48.1683 44.8952C47.3909 45.8973 47.6883 47.4392 47.8593 48.9782C48.0275 50.4952 48.5491 52.3019 48.2444 53.2967C47.9441 54.2769 46.5977 54.4319 45.2369 54.2388C44.4451 53.1124 44.3417 51.6451 44.0025 50.3138C43.3401 47.7186 42.215 45.1308 41.6114 42.3849C41.3097 41.0097 40.9964 39.5702 40.5323 38.3019C39.9762 36.7863 38.2878 36.2845 37.986 34.69C38.0995 34.649 38.1814 34.5744 38.2949 34.5334C39.3396 34.6841 40.8671 35.5955 42.0756 35.9466C42.6489 36.1134 43.4091 36.1149 44.004 36.3387C46.1307 37.1447 48.1108 39.4137 50.0191 41.1282C50.8367 41.8626 51.9187 42.6892 53.1042 43.4045C54.1546 44.038 55.9063 44.7445 56.1894 45.6808ZM44.6219 40.1057C46.3448 40.0837 46.2859 36.978 44.1592 37.5149C42.7251 37.8762 43.1562 40.1247 44.6219 40.1057Z" fill="#9DB0BA"/>
<path d="M50.0205 4.69748C50.0794 5.29288 49.473 6.20135 49.1727 6.73823C48.4801 7.96854 47.6007 9.3583 46.7055 10.4277C46.1537 11.086 45.4036 11.5878 44.7771 12.2329C43.7856 13.2526 42.7897 14.6921 42.0009 16.0804C40.9346 17.9529 39.5178 19.1481 38.9933 21.183C38.8769 21.635 38.8712 24.8329 38.0665 24.8739C37.7446 24.89 37.075 23.5163 36.7559 22.9882C35.5949 21.0616 34.0775 18.9374 33.9797 16.2369C33.9424 15.1851 34.3375 13.0946 34.4424 11.7619C34.5085 10.9397 34.4065 9.83813 34.4424 8.77899C34.4755 7.82956 34.6637 6.88452 34.6738 6.18818C34.6982 4.59215 33.9841 1.95745 34.5962 0.850029C35.1739 -0.193024 37.7647 -0.149137 38.9157 0.299976C39.5839 2.11837 39.2563 4.40197 39.6097 6.50271C39.7161 7.14053 40.0265 8.21284 39.9187 9.17251C42.1187 8.19236 43.9192 6.81138 45.4711 5.08954C46.1867 4.29518 46.635 3.09998 47.7846 2.73425C48.5936 3.119 49.9185 3.66028 50.0205 4.69748ZM37.5262 19.1437C39.3626 19.0954 39.6083 15.5406 37.1411 16.0818C36.4686 16.2296 36.0662 16.7416 35.9843 17.1029C35.6409 18.6405 36.697 19.1671 37.5262 19.1437Z" fill="#BDCD00"/>
<path d="M49.1713 22.5976C49.3308 23.5149 48.7215 23.9391 48.3235 24.0122C46.8463 24.2858 46.0818 21.8779 47.9384 21.7345C48.4816 21.6921 49.0549 21.9291 49.1713 22.5976Z" fill="white"/>
<path d="M46.7816 29.978C48.2229 29.4704 48.1956 31.6267 47.0906 31.6267C46.1982 31.6267 45.8907 30.2911 46.7816 29.978Z" fill="white"/>
<path d="M44.1592 37.5149C46.2859 36.978 46.3448 40.0837 44.6219 40.1057C43.1562 40.1247 42.7251 37.8762 44.1592 37.5149Z" fill="white"/>
<path d="M39.3008 51.5675C39.7247 52.5989 40.3929 53.7078 40.3038 54.5504C40.186 55.6549 38.6815 56.7389 37.3724 56.4361C35.9067 56.0952 35.5963 53.4605 34.8276 52.0386C34.3361 51.1243 33.8102 50.0505 32.5141 49.9978C32.0528 50.8375 32.2123 51.6948 31.9738 52.6676C31.8918 53.0056 31.5384 53.5 31.3573 54.0018C30.817 55.4969 30.4017 57.8112 29.4289 58.3993C28.1716 59.1615 25.8523 58.4447 25.5735 57.0651C25.3997 56.2006 25.8739 54.7713 26.2676 53.7663C26.6326 52.8329 27.1714 51.9157 27.4243 51.0189C27.6672 50.1661 27.9661 49.1289 28.0408 48.3491C28.1744 46.9696 27.7419 45.6749 27.7319 44.3451C27.716 42.1127 29.0898 39.9901 30.123 38.4569C30.6331 37.7006 31.2438 37.0716 31.7424 36.3372C32.7914 34.7894 33.586 33.3163 34.5186 32.1767C34.8764 31.7407 36.4686 30.1462 36.2157 31.7056C36.3565 31.7963 36.6654 31.7085 36.756 32.0201C35.8377 35.0703 35.194 38.9309 35.5992 42.7754C35.6121 42.891 35.6452 43.0373 35.6768 43.1675C36.1237 45.0298 37.2962 46.9301 38.1441 48.7412C38.5205 49.5472 38.8769 50.542 39.3008 51.5675ZM32.744 44.7387C34.0602 44.7094 34.3059 42.0893 32.435 42.5399C31.0943 42.8647 31.6045 44.7635 32.744 44.7387Z" fill="#9DB0BA"/>
<path d="M37.1396 16.0818C39.6069 15.5405 39.3626 19.0954 37.5247 19.1437C36.697 19.1671 35.6394 18.6419 35.9829 17.1029C36.0648 16.7401 36.4671 16.2296 37.1396 16.0818Z" fill="white"/>
<path d="M33.747 25.9755C33.7915 26.8664 33.895 28.0616 33.3619 28.0952C32.8719 28.1245 32.3503 26.1993 32.2051 25.819C31.2438 23.2706 30.0799 20.7266 28.5811 19.1437C26.1498 16.5778 21.1377 15.1163 17.245 13.57C16.3526 13.216 13.9428 12.505 13.6971 11.5293C13.3882 10.3063 14.4917 8.08121 15.1628 7.91736C15.7333 7.77838 16.8613 8.34892 17.3987 8.62395C19.3515 9.62457 21.4624 10.2507 23.5676 11.0582C23.1983 8.50252 21.8993 6.67389 21.0227 4.14891C20.7827 3.45256 20.2281 2.34368 20.4063 1.6371C20.6161 0.797387 22.9684 -0.330515 24.0303 0.538452C24.641 1.03584 24.8522 2.39196 25.2646 3.36479C25.6842 4.35664 26.1958 5.33533 26.5751 6.11213C27.443 7.8881 28.242 9.75185 29.5827 11.2148C30.9435 12.6996 32.0298 14.1567 32.3589 16.5529C32.5241 17.7525 32.527 19.0662 32.744 20.2424C33.1607 22.4938 33.6234 23.4491 33.747 25.9755ZM30.0454 15.9239C31.2352 15.6386 31.0599 13.491 29.6603 13.6476C27.979 13.8348 28.4518 16.3086 30.0454 15.9239Z" fill="#9DB0BA"/>
<path d="M32.4365 42.5399C34.3074 42.0893 34.0602 44.7079 32.7454 44.7387C31.6045 44.7635 31.0943 42.8647 32.4365 42.5399Z" fill="white"/>
<path d="M30.123 27.6241C30.9722 28.2444 32.1419 28.8866 31.9738 30.0584C31.2007 30.6216 30.5382 30.0862 29.814 29.9018C26.9415 29.166 23.7285 28.4199 19.7884 28.7242C16.515 28.9773 14.0851 30.6143 11.6135 31.236C11.0287 31.3823 10.3447 31.4423 9.6851 31.5505C7.91189 31.8387 6.81549 32.1006 6.05965 30.3729C5.78232 29.7351 5.31674 28.4638 5.59695 27.8611C5.94613 27.115 8.99679 26.6366 9.84029 26.3689C11.3462 25.8905 12.9254 25.5877 13.927 24.7992C12.5662 23.0291 9.80437 21.8997 7.7567 20.4792C7.13593 20.0492 6.12288 19.5123 6.05965 18.7516C6.00217 18.045 7.13593 16.465 7.7567 16.4753C10.0688 16.5104 11.8707 18.5029 14.1583 19.1451C15.6557 19.5664 17.2018 19.8443 18.6316 20.2437C20.0973 20.6563 21.6578 20.9708 22.8735 21.5779C24.6525 22.4688 26.3567 24.2316 27.8095 25.5043C28.561 26.1612 29.2996 27.0184 30.123 27.6241ZM22.7973 26.3675C25.3781 26.9819 25.4083 22.7029 22.8749 23.3056C21.3647 23.664 21.4078 26.0354 22.7973 26.3675Z" fill="#9DB0BA"/>
<path d="M30.817 32.8833C31.5369 33.7567 30.567 34.5949 29.9692 35.2386C29.4016 35.8515 28.6185 36.5274 28.196 37.2018C27.4359 38.4175 27.0809 40.0296 26.1914 41.0493C25.4557 41.8919 24.0188 42.5165 23.0301 43.0125C20.8014 44.1301 18.9262 45.5009 17.0926 47.331C15.7721 48.6491 14.2575 50.4133 12.8507 48.3521C11.8793 46.9301 12.2759 46.2601 13.391 45.0547C14.7892 43.545 16.3124 41.6373 17.6329 40.1876C16.2736 40.0252 15.1757 39.6215 13.7 39.56C11.7615 39.4796 9.33161 40.0764 8.06852 39.089C7.65755 38.7671 7.14025 37.3218 7.52823 36.3416C8.1648 34.7412 12.6194 34.9284 15.0105 34.9284C18.4951 34.9284 22.4999 35.2137 25.7302 34.6929C27.6988 34.374 28.9533 33.4846 30.4348 32.9652C30.5814 32.9082 30.5986 32.8877 30.817 32.8833ZM24.8019 40.5767C26.1225 40.4538 26.1526 37.7007 24.2616 38.3004C22.9856 38.7057 23.5 40.6982 24.8019 40.5767Z" fill="#9DB0BA"/>
<path d="M29.6603 13.6475C31.0613 13.4925 31.2352 15.6385 30.0454 15.9238C28.4518 16.3086 27.979 13.8348 29.6603 13.6475Z" fill="white"/>
<path d="M24.2616 38.3004C26.1526 37.7006 26.121 40.4553 24.8019 40.5767C23.5 40.6981 22.9856 38.7056 24.2616 38.3004Z" fill="white"/>
<path d="M22.8735 23.3057C25.4083 22.703 25.3767 26.982 22.7959 26.3675C21.4078 26.0355 21.3647 23.6641 22.8735 23.3057Z" fill="white"/>
<path d="M16.5408 77.3938H21.3029L13.0332 62.8978H8.27113L0 77.3938H4.76208L6.24646 74.6508H15.0579L16.5408 77.3938ZM10.6752 66.4849L13.5505 71.823H7.77538L10.6752 66.4849ZM40.6185 62.8978H36.3407V66.5697C36.0418 66.9077 35.6854 67.2383 35.2701 67.5616C34.8563 67.8849 34.3922 68.1731 33.8777 68.4262C33.3633 68.6792 32.8015 68.884 32.1922 69.0377C31.5829 69.1927 30.9363 69.2703 30.2537 69.2703C29.449 69.2703 28.7622 69.1927 28.1946 69.0377C27.627 68.8826 27.1657 68.6558 26.8079 68.3574C26.4515 68.059 26.19 67.6874 26.0262 67.2441C25.8609 66.8009 25.779 66.2947 25.779 65.7242V62.8964H21.4883V66.1148C21.4883 67.0861 21.6248 67.958 21.8964 68.7319C22.168 69.5058 22.6264 70.1612 23.2715 70.6995C23.9153 71.2379 24.7732 71.6489 25.8423 71.9342C26.9114 72.2195 28.2477 72.3614 29.8514 72.3614C31.2323 72.3614 32.4623 72.1902 33.5444 71.8494C34.625 71.5085 35.5575 71.074 36.3392 70.5459V71.823C36.3392 72.0059 36.299 72.2034 36.2185 72.414C36.1381 72.6247 36.0016 72.8383 35.8104 73.0519C35.6193 73.2669 35.365 73.4746 35.0517 73.6751C34.737 73.8755 34.3419 74.0525 33.8662 74.2076C33.3906 74.3626 32.8288 74.4855 32.1807 74.5762C31.5326 74.6684 30.7825 74.7137 29.9318 74.7137C29.0266 74.7137 28.1701 74.6772 27.3611 74.6026C26.5521 74.5294 25.7948 74.427 25.0893 74.2968C24.3838 74.1666 23.7299 74.0174 23.1278 73.8477C22.5258 73.6795 21.9797 73.4995 21.4883 73.3093V76.7486C21.9409 76.8964 22.497 77.0324 23.1566 77.1553C23.8162 77.2782 24.5231 77.3879 25.279 77.483C26.0348 77.5781 26.8093 77.6512 27.6025 77.7039C28.3957 77.7566 29.153 77.7829 29.8744 77.7829C31.5154 77.7829 32.9969 77.6498 34.3203 77.3821C35.6438 77.1144 36.7703 76.7267 37.7029 76.2161C38.6341 75.707 39.354 75.0824 39.8598 74.3436C40.3656 73.6048 40.6185 72.7651 40.6185 71.8216V62.8978ZM62.3927 77.3938V67.5192C62.3927 66.7599 62.2375 66.0723 61.9272 65.4565C61.6168 64.8406 61.1699 64.3168 60.5865 63.8838C60.0031 63.4508 59.2918 63.1173 58.4526 62.8817C57.6134 62.6462 56.6607 62.5277 55.5945 62.5277C54.7438 62.5277 53.9334 62.5979 53.1675 62.7384C52.4001 62.8788 51.6759 63.0617 50.9934 63.287C50.3108 63.5122 49.667 63.7639 49.0606 64.0418C48.4542 64.3198 47.8838 64.5992 47.3463 64.8801V62.8964H43.0786V77.3923H47.3463V68.2989C47.7918 67.9551 48.2991 67.6245 48.871 67.307C49.4429 66.991 50.0421 66.7131 50.6715 66.4732C51.3009 66.2347 51.9346 66.0431 52.5754 65.8982C53.2149 65.7549 53.827 65.6817 54.4104 65.6817C55.1778 65.6817 55.8043 65.768 56.2914 65.9407C56.7785 66.1133 57.1579 66.3561 57.4295 66.6692C57.7011 66.9823 57.8879 67.3582 57.987 67.7986C58.0862 68.2389 58.1365 68.729 58.1365 69.2703V77.3938H62.3927ZM69.1321 77.3938V62.8978H64.8643V77.3938H69.1321Z" fill="#BDCD00"/>
<path d="M4.19591 94.2713H8.39327L12.7041 99.6094H17.2018L12.5389 93.8807C12.9599 93.7329 13.3608 93.5471 13.7402 93.3218C14.1196 93.0966 14.4529 92.8215 14.7403 92.4938C15.0263 92.1662 15.2547 91.7756 15.4243 91.3177C15.5939 90.8598 15.6786 90.3258 15.6786 89.7143C15.6786 89.018 15.5766 88.3875 15.3726 87.8199C15.1685 87.2537 14.8409 86.771 14.3883 86.3687C13.9356 85.9678 13.3479 85.6577 12.6266 85.4397C11.9052 85.2217 11.0258 85.112 9.98973 85.112H0.352051V99.608H4.19591V94.2713ZM11.6839 90.4107C11.6106 90.6082 11.4856 90.7676 11.306 90.8905C11.1264 91.0134 10.8864 91.1041 10.5861 91.1597C10.2857 91.2167 9.9107 91.2445 9.46093 91.2445H4.19591V88.1432H9.46093C9.9107 88.1432 10.2843 88.1709 10.5861 88.228C10.8864 88.2836 11.1264 88.3743 11.306 88.4972C11.4856 88.6201 11.6121 88.781 11.6839 88.977C11.7558 89.1745 11.7931 89.413 11.7931 89.6938C11.7917 89.9747 11.7558 90.2132 11.6839 90.4107ZM33.5199 99.6094V89.9981C33.5199 89.1043 33.3144 88.3348 32.9035 87.6882C32.4925 87.0416 31.922 86.5062 31.1935 86.0848C30.465 85.6621 29.5956 85.3519 28.5868 85.1515C27.5781 84.9511 26.476 84.8502 25.2804 84.8502C24.6726 84.8502 24.0374 84.8765 23.3736 84.9291C22.7111 84.9818 22.0544 85.052 21.4049 85.1398C20.7554 85.2276 20.1303 85.3314 19.5297 85.4514C18.9291 85.5714 18.3859 85.6943 17.9031 85.8201V89.3018C18.3658 89.1189 18.8802 88.9434 19.4464 88.7737C20.0125 88.6054 20.6117 88.4577 21.244 88.3304C21.8763 88.2046 22.5329 88.1037 23.2126 88.0305C23.8937 87.9559 24.582 87.9193 25.2804 87.9193C26.1641 87.9193 26.8912 87.9764 27.4617 88.0876C28.0322 88.2002 28.4805 88.3465 28.8096 88.525C29.1372 88.7049 29.3642 88.9112 29.4878 89.1482C29.6128 89.3837 29.6746 89.6207 29.6746 89.8606V90.1664C27.4229 90.2936 25.473 90.4692 23.8248 90.6945C22.1766 90.9198 20.8143 91.2401 19.7366 91.6541C18.6589 92.0696 17.8571 92.6021 17.3326 93.2516C16.8081 93.9026 16.5451 94.716 16.5451 95.6947C16.5451 96.4686 16.7133 97.1225 17.0481 97.6564C17.3829 98.1904 17.8269 98.6234 18.3801 98.954C18.9334 99.2847 19.5671 99.5231 20.2812 99.6709C20.9968 99.8186 21.7369 99.8918 22.5042 99.8918C23.1609 99.8918 23.8118 99.8552 24.457 99.7806C25.1037 99.706 25.7302 99.5963 26.338 99.4485C26.9458 99.3008 27.5307 99.1208 28.094 98.9102C28.6573 98.6995 29.1832 98.4567 29.6746 98.1816V99.6065H33.5199V99.6094ZM29.6746 94.9047C29.301 95.1724 28.8785 95.4241 28.4058 95.6596C27.933 95.8951 27.4272 96.0999 26.8884 96.2711C26.3495 96.4437 25.779 96.5783 25.1784 96.6778C24.5777 96.7758 23.9627 96.8255 23.3333 96.8255C22.7672 96.8255 22.2973 96.7904 21.9237 96.7202C21.5501 96.65 21.2512 96.5549 21.027 96.4349C20.8028 96.315 20.6448 96.176 20.5557 96.018C20.4652 95.86 20.4206 95.6962 20.4206 95.5279C20.4206 95.3875 20.4436 95.2324 20.4881 95.0642C20.5327 94.8959 20.652 94.7262 20.846 94.558C21.0399 94.3898 21.3316 94.2245 21.7211 94.0621C22.1119 93.8997 22.6479 93.749 23.3319 93.6086C24.0159 93.4681 24.8737 93.3453 25.9069 93.2399C26.9401 93.1346 28.1946 93.0541 29.6732 92.9971V94.9047H29.6746ZM30.3802 81.7912L25.5204 78.9854L20.6606 81.7912L21.915 83.7749L25.5218 81.8761L29.1286 83.7749L30.3802 81.7912ZM51.4216 88.0686C51.2146 87.4644 50.8813 86.9421 50.4214 86.5018C49.9616 86.0629 49.3653 85.7206 48.6339 85.4777C47.901 85.2349 47.0101 85.1135 45.9597 85.1135H35.7314V99.6094H39.5767V95.0305H45.9597C47.0101 95.0305 47.901 94.9076 48.6339 94.6619C49.3667 94.4161 49.9616 94.0723 50.4214 93.6334C50.8813 93.1946 51.2146 92.6694 51.4216 92.0608C51.6285 91.4523 51.7319 90.7866 51.7319 90.061C51.7319 89.3384 51.6285 88.6727 51.4216 88.0686ZM47.7056 90.9797C47.6122 91.2123 47.4584 91.3996 47.2443 91.5444C47.0302 91.6892 46.75 91.7902 46.4051 91.8502C46.0603 91.9101 45.6349 91.9394 45.1306 91.9394H39.5767V88.2046H45.1306C45.6349 88.2046 46.0603 88.2412 46.4051 88.3158C46.75 88.3889 47.0302 88.5045 47.2443 88.6581C47.4584 88.8132 47.6122 89.0121 47.7056 89.2535C47.799 89.4963 47.845 89.786 47.845 90.1239C47.8464 90.4633 47.799 90.7486 47.7056 90.9797ZM68.8289 95.506C68.5386 95.6815 68.1564 95.8571 67.6836 96.0341C67.2109 96.2096 66.6806 96.3706 66.0929 96.5139C65.5052 96.6587 64.8729 96.7743 64.1961 96.8621C63.5193 96.9499 62.8281 96.9938 62.124 96.9938C61.1296 96.9938 60.2747 96.9191 59.5591 96.7714C58.8434 96.6236 58.2414 96.4159 57.7499 96.1497C57.2599 95.8819 56.8705 95.5586 56.5845 95.1797C56.2972 94.7994 56.0917 94.381 55.9681 93.9246H70V92.9532C70 91.6234 69.7873 90.4502 69.3634 89.4291C68.9381 88.4094 68.3403 87.5507 67.5701 86.8543C66.7999 86.158 65.8774 85.6328 64.8039 85.2773C63.7291 84.9218 62.5465 84.7448 61.2547 84.7448C59.8522 84.7448 58.5805 84.9394 57.441 85.33C56.3015 85.7206 55.3286 86.2619 54.5239 86.9553C53.7192 87.6487 53.097 88.4635 52.6588 89.4027C52.2205 90.3419 52.0006 91.3601 52.0006 92.4573C52.0006 93.6393 52.2176 94.697 52.653 95.6332C53.0884 96.5695 53.7207 97.3595 54.5498 98.0075C55.3789 98.6542 56.3992 99.1486 57.612 99.4895C58.8248 99.8303 60.2086 100.001 61.7619 100.001C62.9776 100.001 64.1674 99.9152 65.3313 99.7426C66.4952 99.5699 67.6606 99.2876 68.8289 98.8941V95.506ZM55.9681 91.0543C56.0371 90.7384 56.1894 90.3931 56.4236 90.0201C56.6578 89.647 56.9883 89.2989 57.4137 88.9756C57.839 88.6523 58.3649 88.3816 58.9943 88.1636C59.6223 87.9457 60.3695 87.8374 61.2331 87.8374C62.1513 87.8374 62.9187 87.9369 63.5337 88.1373C64.1487 88.3377 64.6459 88.5923 65.0252 88.9024C65.4046 89.2125 65.6834 89.5578 65.8601 89.9411C66.0369 90.3244 66.1418 90.6959 66.1762 91.0543H55.9681ZM63.9475 79.0263L58.9627 81.9799L59.8953 83.7735L65.304 81.8117L63.9475 79.0263Z" fill="#9DB0BA"/>
</g>
<defs>
<clipPath id="clip0_34_1296">
<rect width="70" height="100" fill="white"/>
</clipPath>
</defs>
</svg>
