<svg width="44" height="22" viewBox="0 0 44 22" fill="none" xmlns="http://www.w3.org/2000/svg">
<path d="M7.05855 5.92505L5.31531 9.83338H6.47747L6.76801 9.01672H8.56936L8.8599 9.83338H10.0221L8.27882 5.92505H7.05855ZM7.63963 6.85838L8.22071 8.20005H7.05855L7.63963 6.85838ZM10.1383 9.77505V5.98338H11.7072L12.6369 8.49172L13.4504 5.92505H15.0194V9.83338H14.0315V6.91672L12.9856 9.83338H12.114L11.1261 6.91672V9.83338H10.1383M15.7748 9.83338V5.92505H18.9707V6.80005H16.7626V7.50005H18.9707V8.31672H16.7626V9.01672H19.0288V9.83338H15.7748ZM19.5518 5.92505V9.83338H20.5396V8.43338H21.0045L22.1667 9.83338H23.3288L22.0504 8.37505C22.3587 8.37505 22.6543 8.25213 22.8722 8.03334C23.0902 7.81455 23.2126 7.5178 23.2126 7.20838C23.2126 6.39172 22.5153 5.92505 21.7599 5.92505H19.5518ZM20.5396 6.80005H21.7018C21.9923 6.80005 22.1667 7.03338 22.1667 7.20838C22.1667 7.50005 21.9342 7.61672 21.7018 7.61672H20.5396V6.80005ZM23.5613 9.83338H24.5491V5.92505H23.5613V9.83338ZM26.9896 9.83338H26.7572C25.7113 9.83338 25.014 9.01672 25.014 7.90838C25.014 6.74172 25.7113 5.92505 27.0477 5.92505H28.1518V6.91672H26.9896C26.4085 6.91672 26.0599 7.32505 26.0599 7.96672C26.0599 8.72505 26.5248 9.01672 27.1058 9.01672H27.3964L26.9896 9.89172M29.1396 5.92505L27.3964 9.83338H28.5585L28.8491 9.01672H30.6504L30.9991 9.83338H32.1613L30.418 5.92505H29.1396ZM29.7207 6.85838L30.3018 8.20005H29.1977L29.7788 6.85838H29.7207ZM32.2194 9.77505V5.98338H33.4977L35.1248 8.43338V5.92505H36.1126V9.83338H34.8923L33.2072 7.32505V9.83338H32.2194M12.5207 16.6V12.75H15.7748V13.625H13.4504V14.2084H15.7748V15.0834H13.5667V15.7834H15.7748V16.6H12.5207ZM28.3842 16.6V12.75H31.5802V13.625H29.3721V14.2084H31.5221V15.0834H29.3721V15.7834H31.5802V16.6H28.3842ZM15.891 16.6L17.4599 14.675L15.8329 12.75H17.1113L18.041 13.9167L19.0288 12.75H20.191L18.6802 14.675L20.2491 16.6H19.0288L18.0991 15.4334L17.1694 16.6H15.9491M20.3653 12.75V16.6H21.4113V15.4334H22.4572C23.3288 15.4334 24.0261 14.9084 24.0261 14.0334C24.0261 13.275 23.445 12.75 22.5734 12.75H20.3653ZM21.4113 13.625H22.5153C22.8058 13.625 22.9802 13.8 22.9802 14.0334C22.9802 14.325 22.8058 14.5 22.5153 14.5H21.3531V13.625H21.4113ZM24.4329 12.75V16.6H25.4207V15.2584H25.8275L26.9896 16.6H28.2099L26.9315 15.2C27.2296 15.1851 27.5104 15.0556 27.716 14.8384C27.9215 14.6212 28.0359 14.333 28.0356 14.0334C28.0356 13.1584 27.3383 12.75 26.641 12.75H24.4329ZM25.4207 13.625H26.5829C26.8153 13.625 27.0477 13.8 27.0477 14.0334C27.0477 14.2667 26.7572 14.4417 26.5829 14.4417H25.4207V13.625ZM32.045 16.6V15.7834H34.0207C34.3113 15.7834 34.4856 15.6084 34.4856 15.4334C34.4856 15.2584 34.3113 15.1417 34.0207 15.1417H33.2072C32.4518 15.1417 32.045 14.675 32.045 13.975C32.045 13.3334 32.3937 12.75 33.5558 12.75H35.4734L35.0667 13.625H33.3815C33.091 13.625 32.9748 13.7417 32.9748 13.9167C32.9748 14.0917 33.091 14.2667 33.3234 14.2667H34.2531C35.1248 14.2667 35.5315 14.7334 35.5315 15.375C35.5315 16.0751 35.1248 16.6 34.2531 16.6H32.045ZM35.7058 16.6V15.7834H37.6234C37.914 15.7834 38.0302 15.6084 38.0302 15.4334C38.0302 15.2584 37.914 15.1417 37.6234 15.1417H36.8099C35.9964 15.1417 35.5896 14.675 35.5896 13.975C35.5896 13.3334 35.9964 12.75 37.1004 12.75H39.018L38.6113 13.625H36.9842C36.6356 13.625 36.5775 13.7417 36.5775 13.9167C36.5775 14.0917 36.6937 14.2667 36.9261 14.2667H37.7977C38.6694 14.2667 39.018 14.7334 39.018 15.375C39.018 16.0751 38.6113 16.6 37.7396 16.6H35.7058Z" fill="white"/>
</svg>
