<svg width="29" height="22" viewBox="0 0 29 22" fill="none" xmlns="http://www.w3.org/2000/svg">
<path d="M11.9246 6.45007H17.583V15.5501H11.983L11.9246 6.45007Z" fill="#ECECEC"/>
<path d="M12.508 11.0001C12.512 10.1239 12.7134 9.25986 13.0971 8.47216C13.4809 7.68446 14.0371 6.99332 14.7246 6.45008C13.867 5.76204 12.8324 5.33039 11.7401 5.20488C10.6478 5.07937 9.54227 5.26513 8.55096 5.74073C7.55965 6.21633 6.72294 6.96241 6.13729 7.89294C5.55164 8.82348 5.24091 9.90059 5.24091 11.0001C5.24091 12.0996 5.55164 13.1767 6.13729 14.1072C6.72294 15.0378 7.55965 15.7838 8.55096 16.2594C9.54227 16.735 10.6478 16.9208 11.7401 16.7953C12.8324 16.6698 13.867 16.2381 14.7246 15.5501C14.0371 15.0068 13.4809 14.3157 13.0971 13.528C12.7134 12.7403 12.512 11.8763 12.508 11.0001Z" fill="white"/>
<path d="M24.1163 10.9999C24.095 12.0733 23.7779 13.12 23.1998 14.0247C22.6218 14.9294 21.8053 15.6571 20.8403 16.1275C19.8752 16.598 18.7991 16.793 17.7303 16.6911C16.6616 16.5891 15.6417 16.1943 14.783 15.5499C15.4643 15.0033 16.0141 14.3107 16.3919 13.5232C16.7698 12.7356 16.9659 11.8733 16.9659 10.9999C16.9659 10.1264 16.7698 9.26411 16.3919 8.4766C16.0141 7.68909 15.4643 6.99647 14.783 6.44988C15.6417 5.80551 16.6616 5.41062 17.7303 5.3087C18.7991 5.20678 19.8752 5.40178 20.8403 5.87224C21.8053 6.3427 22.6218 7.07035 23.1998 7.97507C23.7779 8.8798 24.095 9.92649 24.1163 10.9999Z" fill="white"/>
</svg>
