<svg width="690" height="203" viewBox="0 0 690 203" fill="none" xmlns="http://www.w3.org/2000/svg">
<g clip-path="url(#clip0_560_4)">
<path d="M161.888 199.463H208.496L127.559 59.5718H80.9512L0 199.463H46.6074L61.1353 172.993H147.374L161.888 199.463ZM104.48 94.1881L132.622 145.703H76.0992L104.48 94.1881ZM397.541 59.5718H355.673V95.0069C352.748 98.2681 349.26 101.459 345.196 104.579C341.145 107.699 336.603 110.48 331.568 112.922C326.533 115.365 321.034 117.341 315.071 118.823C309.108 120.32 302.779 121.068 296.099 121.068C288.223 121.068 281.501 120.32 275.946 118.823C270.39 117.327 265.876 115.139 262.374 112.259C258.886 109.379 256.327 105.793 254.723 101.515C253.106 97.2376 252.304 92.3528 252.304 86.847V59.5576H210.31V90.6164C210.31 99.9905 211.646 108.405 214.304 115.873C216.962 123.341 221.448 129.666 227.763 134.861C234.064 140.056 242.46 144.023 252.923 146.776C263.387 149.529 276.466 150.899 292.161 150.899C305.676 150.899 317.715 149.247 328.305 145.957C338.881 142.668 348.008 138.475 355.659 133.379V145.703C355.659 147.468 355.265 149.374 354.478 151.407C353.69 153.44 352.354 155.501 350.484 157.562C348.613 159.637 346.124 161.642 343.058 163.576C339.978 165.51 336.11 167.219 331.455 168.715C326.8 170.212 321.301 171.397 314.959 172.273C308.616 173.162 301.274 173.6 292.949 173.6C284.089 173.6 275.707 173.247 267.789 172.527C259.871 171.821 252.459 170.833 245.554 169.576C238.648 168.32 232.249 166.88 226.357 165.242C220.464 163.619 215.12 161.882 210.31 160.047V193.237C214.74 194.663 220.183 195.976 226.638 197.162C233.093 198.348 240.013 199.407 247.41 200.324C254.808 201.242 262.388 201.948 270.151 202.456C277.915 202.964 285.326 203.219 292.386 203.219C308.447 203.219 322.947 201.934 335.9 199.35C348.852 196.767 359.878 193.026 369.006 188.099C378.119 183.186 385.165 177.157 390.115 170.028C395.066 162.899 397.541 154.795 397.541 145.689V59.5718ZM610.65 199.463V104.169C610.65 96.8423 609.131 90.207 606.093 84.2635C603.055 78.3199 598.681 73.2658 592.972 69.087C587.262 64.9082 580.3 61.6894 572.087 59.4164C563.874 57.1435 554.549 56 544.114 56C535.788 56 527.856 56.6776 520.36 58.0329C512.85 59.3882 505.762 61.1529 499.082 63.327C492.401 65.5011 486.101 67.9294 480.166 70.6117C474.231 73.294 468.648 75.9905 463.388 78.7011V59.5576H421.618V199.449H463.388V111.694C467.748 108.376 472.712 105.186 478.309 102.122C483.907 99.0728 489.771 96.3905 495.931 94.0752C502.091 91.7741 508.293 89.9246 514.566 88.527C520.824 87.1434 526.815 86.4376 532.525 86.4376C540.035 86.4376 546.167 87.2705 550.935 88.9364C555.702 90.6023 559.415 92.9458 562.073 95.967C564.731 98.9881 566.56 102.616 567.53 106.866C568.501 111.115 568.993 115.845 568.993 121.068V199.463H610.65ZM676.609 199.463V59.5718H634.839V199.463H676.609Z" fill="#BDCD00"/>
</g>
<defs>
<clipPath id="clip0_560_4">
<rect width="690" height="203" fill="white"/>
</clipPath>
</defs>
</svg>
