<svg width="46" height="46" viewBox="0 0 46 46" fill="none" xmlns="http://www.w3.org/2000/svg">
<path fill-rule="evenodd" clip-rule="evenodd" d="M19.0587 6.22913H26.94C30.4629 6.22913 33.2535 6.22913 35.4366 6.52238C37.683 6.82521 39.5019 7.46154 40.9375 8.89521C42.3711 10.3308 43.0075 12.1497 43.3103 14.396C43.4828 15.686 43.5537 17.1867 43.5825 18.9251C43.6075 19.0708 43.6101 19.2195 43.5901 19.366C43.6035 20.4508 43.6035 21.6238 43.6035 22.8926V23.1073C43.6035 26.6301 43.6035 29.4208 43.3103 31.6039C43.0075 33.8502 42.3711 35.6691 40.9375 37.1047C39.5019 38.5384 37.683 39.1747 35.4366 39.4775C33.2516 39.7708 30.4629 39.7708 26.94 39.7708H19.0587C15.5359 39.7708 12.7452 39.7708 10.5621 39.4775C8.31579 39.1747 6.49687 38.5384 5.06129 37.1047C3.62762 35.6691 2.99129 33.8502 2.68845 31.6039C2.3952 29.4189 2.3952 26.6301 2.3952 23.1073V22.8926C2.3952 21.6238 2.3952 20.4508 2.40862 19.366C2.38807 19.2196 2.39001 19.0709 2.41437 18.9251C2.44504 17.1867 2.51595 15.686 2.68845 14.396C2.99129 12.1497 3.62762 10.3308 5.06129 8.89521C6.49687 7.46154 8.31579 6.82521 10.5621 6.52238C12.7471 6.22913 15.5359 6.22913 19.0587 6.22913ZM5.27404 20.6041C5.2702 21.3478 5.2702 22.1451 5.2702 23C5.2702 26.655 5.27404 29.2521 5.53854 31.2225C5.79729 33.1487 6.28412 34.2604 7.09487 35.0711C7.90562 35.8819 9.01729 36.3687 10.9455 36.6275C12.9158 36.892 15.511 36.8958 19.166 36.8958H26.8327C30.4878 36.8958 33.0849 36.892 35.0552 36.6275C36.9815 36.3687 38.0931 35.8819 38.9039 35.0711C39.7146 34.2604 40.2015 33.1487 40.4602 31.2205C40.7247 29.2502 40.7285 26.655 40.7285 23C40.7285 22.1451 40.7285 21.3478 40.7247 20.6041H5.27404ZM40.6787 17.7291H5.32004C5.35837 16.604 5.42354 15.6323 5.53854 14.7775C5.79729 12.8512 6.28412 11.7395 7.09487 10.9288C7.90562 10.118 9.01729 9.63121 10.9455 9.37246C12.9158 9.10796 15.511 9.10413 19.166 9.10413H26.8327C30.4878 9.10413 33.0849 9.10796 35.0552 9.37246C36.9815 9.63121 38.0931 10.118 38.9039 10.9288C39.7146 11.7395 40.2015 12.8512 40.4602 14.7794C40.5752 15.6323 40.6404 16.604 40.6787 17.7291ZM10.0619 30.6666C10.0619 30.2854 10.2133 29.9197 10.4829 29.6502C10.7525 29.3806 11.1181 29.2291 11.4994 29.2291H19.166C19.5473 29.2291 19.9129 29.3806 20.1825 29.6502C20.4521 29.9197 20.6035 30.2854 20.6035 30.6666C20.6035 31.0479 20.4521 31.4135 20.1825 31.6831C19.9129 31.9527 19.5473 32.1041 19.166 32.1041H11.4994C11.1181 32.1041 10.7525 31.9527 10.4829 31.6831C10.2133 31.4135 10.0619 31.0479 10.0619 30.6666ZM22.5202 30.6666C22.5202 30.2854 22.6717 29.9197 22.9412 29.6502C23.2108 29.3806 23.5765 29.2291 23.9577 29.2291H26.8327C27.214 29.2291 27.5796 29.3806 27.8492 29.6502C28.1188 29.9197 28.2702 30.2854 28.2702 30.6666C28.2702 31.0479 28.1188 31.4135 27.8492 31.6831C27.5796 31.9527 27.214 32.1041 26.8327 32.1041H23.9577C23.5765 32.1041 23.2108 31.9527 22.9412 31.6831C22.6717 31.4135 22.5202 31.0479 22.5202 30.6666Z" fill="#BDCD00"/>
</svg>
