<svg width="24" height="24" viewBox="0 0 24 24" fill="none" xmlns="http://www.w3.org/2000/svg">
<circle opacity="0.3" cx="12" cy="12" r="12" fill="#9DB0BA"/>
<path d="M18 6.75C18.1989 6.75 18.3897 6.82902 18.5303 6.96967C18.671 7.11032 18.75 7.30109 18.75 7.5C18.75 7.69891 18.671 7.88968 18.5303 8.03033C18.3897 8.17098 18.1989 8.25 18 8.25H17.25L17.2477 8.30325L16.548 18.1065C16.5211 18.4849 16.3517 18.8391 16.0741 19.0977C15.7965 19.3563 15.4311 19.5 15.0518 19.5H8.9475C8.5681 19.5 8.2028 19.3563 7.92516 19.0977C7.64753 18.8391 7.47819 18.4849 7.45125 18.1065L6.7515 8.304C6.75036 8.28602 6.74986 8.26801 6.75 8.25H6C5.80109 8.25 5.61032 8.17098 5.46967 8.03033C5.32902 7.88968 5.25 7.69891 5.25 7.5C5.25 7.30109 5.32902 7.11032 5.46967 6.96967C5.61032 6.82902 5.80109 6.75 6 6.75H18ZM15.7477 8.25H8.25225L8.94825 18H15.0518L15.7477 8.25ZM13.5 4.5C13.6989 4.5 13.8897 4.57902 14.0303 4.71967C14.171 4.86032 14.25 5.05109 14.25 5.25C14.25 5.44891 14.171 5.63968 14.0303 5.78033C13.8897 5.92098 13.6989 6 13.5 6H10.5C10.3011 6 10.1103 5.92098 9.96967 5.78033C9.82902 5.63968 9.75 5.44891 9.75 5.25C9.75 5.05109 9.82902 4.86032 9.96967 4.71967C10.1103 4.57902 10.3011 4.5 10.5 4.5H13.5Z" fill="#BDCD00"/>
</svg>
