<svg width="24" height="24" viewBox="0 0 24 24" fill="none" xmlns="http://www.w3.org/2000/svg">
<circle opacity="0.3" cx="12" cy="12" r="12" fill="#9DB0BA"/>
<path fill-rule="evenodd" clip-rule="evenodd" d="M14.2158 5.03689L5.64955 13.6032C5.52149 13.7309 5.43752 13.8962 5.40985 14.0749L4.8106 17.9798C4.79038 18.1117 4.80149 18.2465 4.84304 18.3733C4.88458 18.5001 4.95539 18.6154 5.04974 18.7097C5.14409 18.804 5.25932 18.8749 5.38612 18.9164C5.51292 18.958 5.64771 18.9691 5.7796 18.9488L9.68535 18.3496C9.86399 18.3222 10.0292 18.2385 10.1571 18.1107L18.7234 9.54444C18.8828 9.38504 18.9723 9.16888 18.9723 8.94349C18.9723 8.7181 18.8828 8.50194 18.7234 8.34254L15.4169 5.03604C15.2575 4.87695 15.0416 4.7876 14.8164 4.7876C14.5912 4.7876 14.3752 4.87695 14.2158 5.03604V5.03689ZM6.667 17.0933L7.0478 14.6079L14.8168 6.83889L16.9205 8.94349L9.15155 16.7125L6.667 17.0933Z" fill="#BDCD00"/>
<path d="M12.7227 8.4602L13.6237 7.55835L16.3794 10.3123L15.4775 11.2142L12.7227 8.4602Z" fill="#BDCD00"/>
</svg>
