<svg width="30" height="30" viewBox="0 0 30 30" fill="none" xmlns="http://www.w3.org/2000/svg">
<rect width="30" height="30" rx="15" fill="#9DB0BA"/>
<path fill-rule="evenodd" clip-rule="evenodd" d="M13.7397 8.43035C14.56 7.64267 15.6727 7.20008 16.833 7.19995H19.083C19.2488 7.19995 19.4077 7.26317 19.525 7.37569C19.6422 7.48821 19.708 7.64082 19.708 7.79995V10.68C19.708 10.8391 19.6422 10.9917 19.525 11.1042C19.4077 11.2167 19.2488 11.28 19.083 11.28H16.833C16.8166 11.28 16.8003 11.2831 16.7852 11.2891C16.77 11.2951 16.7562 11.304 16.7446 11.3151C16.733 11.3262 16.7238 11.3395 16.7175 11.354C16.7112 11.3686 16.708 11.3842 16.708 11.4V12.96H19.083C19.178 12.9599 19.2718 12.9806 19.3572 13.0206C19.4426 13.0606 19.5174 13.1187 19.5759 13.1906C19.6344 13.2625 19.675 13.3462 19.6948 13.4355C19.7145 13.5247 19.7127 13.6171 19.6897 13.7056L18.9397 16.5856C18.9058 16.7154 18.8277 16.8307 18.7178 16.913C18.6079 16.9953 18.4724 17.04 18.333 17.04H16.708V22.2C16.708 22.3591 16.6422 22.5117 16.5249 22.6242C16.4077 22.7367 16.2488 22.8 16.083 22.8H13.083C12.9172 22.8 12.7583 22.7367 12.6411 22.6242C12.5239 22.5117 12.458 22.3591 12.458 22.2V17.04H10.833C10.6672 17.04 10.5083 16.9767 10.3911 16.8642C10.2739 16.7517 10.208 16.5991 10.208 16.44V13.56C10.208 13.4812 10.2242 13.4031 10.2556 13.3303C10.287 13.2575 10.333 13.1914 10.3911 13.1357C10.4491 13.08 10.518 13.0358 10.5938 13.0056C10.6697 12.9755 10.7509 12.96 10.833 12.96H12.458V11.4C12.4581 10.2861 12.9192 9.2179 13.7397 8.43035Z" fill="white"/>
</svg>
