<svg width="46" height="46" viewBox="0 0 46 46" fill="none" xmlns="http://www.w3.org/2000/svg">
<path d="M36.4183 42.1667V28.5584C36.4179 26.7962 36.0704 25.0513 35.3956 23.4234C34.7207 21.7955 33.7318 20.3165 32.4853 19.0709L28.7478 15.3334V27.9585C28.7478 29.6643 26.6835 30.521 25.476 29.3135L22.994 26.8334C22.0356 25.875 19.7337 25.3 18.1985 26.8334C16.6651 28.3667 17.2401 30.6667 18.1985 31.625L28.7478 42.1667" stroke="#BDCD00" stroke-width="3" stroke-linecap="round" stroke-linejoin="round"/>
<path d="M21.084 3.83337H24.9173C25.934 3.83337 26.909 4.23724 27.6279 4.95613C28.3468 5.67502 28.7507 6.65004 28.7507 7.66671V11.5M21.084 3.83337C21.084 6.38829 22.6173 11.5 28.7507 11.5M21.084 3.83337H17.2507M28.7507 11.5V23M17.2507 3.83337H13.4173C12.4007 3.83337 11.4256 4.23724 10.7067 4.95613C9.98785 5.67502 9.58398 6.65004 9.58398 7.66671V11.5M17.2507 3.83337C17.2507 6.38829 15.7173 11.5 9.58398 11.5M9.58398 23V26.8334C9.58398 27.85 9.98785 28.8251 10.7067 29.544C11.4256 30.2628 12.4007 30.6667 13.4173 30.6667H17.2507C17.2507 28.1118 15.7173 23 9.58398 23ZM9.58398 23V11.5" stroke="#BDCD00" stroke-width="3" stroke-linecap="round" stroke-linejoin="round"/>
<path d="M17.2507 17.25C17.2507 18.3086 18.1088 19.1667 19.1673 19.1667C20.2259 19.1667 21.084 18.3086 21.084 17.25C21.084 16.1915 20.2259 15.3334 19.1673 15.3334C18.1088 15.3334 17.2507 16.1915 17.2507 17.25Z" fill="#BDCD00" stroke="#BDCD00" stroke-width="3" stroke-linecap="round" stroke-linejoin="round"/>
</svg>
