<svg width="30" height="30" viewBox="0 0 30 30" fill="none" xmlns="http://www.w3.org/2000/svg">
<rect width="30" height="30" rx="15" fill="#9DB0BA"/>
<path d="M15.771 7.5C16.6147 7.50225 17.043 7.50675 17.4127 7.51725L17.5582 7.5225C17.7262 7.5285 17.892 7.536 18.0922 7.545C18.8902 7.5825 19.4347 7.7085 19.9125 7.89375C20.4075 8.08425 20.8245 8.34225 21.2415 8.7585C21.623 9.1333 21.9181 9.58685 22.1062 10.0875C22.2915 10.5652 22.4175 11.1097 22.455 11.9085C22.464 12.108 22.4715 12.2738 22.4775 12.4425L22.482 12.588C22.4932 12.957 22.4977 13.3853 22.4992 14.229L22.5 14.7885V15.771C22.5018 16.3181 22.4961 16.8651 22.4827 17.412L22.4782 17.5575C22.4722 17.7262 22.4647 17.892 22.4557 18.0915C22.4182 18.8903 22.2907 19.434 22.1062 19.9125C21.9181 20.4131 21.623 20.8667 21.2415 21.2415C20.8667 21.623 20.4131 21.9181 19.9125 22.1063C19.4347 22.2915 18.8902 22.4175 18.0922 22.455L17.5582 22.4775L17.4127 22.482C17.043 22.4925 16.6147 22.4978 15.771 22.4993L15.2115 22.5H14.2297C13.6824 22.5019 13.1351 22.4962 12.588 22.4827L12.4425 22.4783C12.2645 22.4715 12.0865 22.4638 11.9085 22.455C11.1105 22.4175 10.566 22.2915 10.0875 22.1063C9.58712 21.918 9.13383 21.6229 8.75925 21.2415C8.37746 20.8668 8.08208 20.4132 7.89375 19.9125C7.7085 19.4347 7.5825 18.8903 7.545 18.0915L7.5225 17.5575L7.51875 17.412C7.50492 16.8651 7.49867 16.3181 7.5 15.771V14.229C7.49792 13.682 7.50342 13.1349 7.5165 12.588L7.52175 12.4425C7.52775 12.2738 7.53525 12.108 7.54425 11.9085C7.58175 11.1097 7.70775 10.566 7.893 10.0875C8.08177 9.58665 8.37767 9.13308 8.76 8.7585C9.13436 8.37716 9.58739 8.08206 10.0875 7.89375C10.566 7.7085 11.1097 7.5825 11.9085 7.545C12.108 7.536 12.2745 7.5285 12.4425 7.5225L12.588 7.518C13.1349 7.50467 13.6819 7.49892 14.229 7.50075L15.771 7.5ZM15 11.25C14.0054 11.25 13.0516 11.6451 12.3483 12.3483C11.6451 13.0516 11.25 14.0054 11.25 15C11.25 15.9946 11.6451 16.9484 12.3483 17.6517C13.0516 18.3549 14.0054 18.75 15 18.75C15.9946 18.75 16.9484 18.3549 17.6516 17.6517C18.3549 16.9484 18.75 15.9946 18.75 15C18.75 14.0054 18.3549 13.0516 17.6516 12.3483C16.9484 11.6451 15.9946 11.25 15 11.25ZM15 12.75C15.2955 12.75 15.5881 12.8081 15.8611 12.9211C16.1341 13.0342 16.3821 13.1998 16.5911 13.4087C16.8001 13.6176 16.9658 13.8657 17.079 14.1386C17.1921 14.4116 17.2503 14.7042 17.2504 14.9996C17.2504 15.2951 17.1923 15.5877 17.0792 15.8607C16.9662 16.1337 16.8005 16.3818 16.5916 16.5907C16.3827 16.7997 16.1347 16.9655 15.8618 17.0786C15.5888 17.1917 15.2962 17.25 15.0007 17.25C14.404 17.25 13.8317 17.0129 13.4098 16.591C12.9878 16.169 12.7507 15.5967 12.7507 15C12.7507 14.4033 12.9878 13.831 13.4098 13.409C13.8317 12.9871 14.404 12.75 15.0007 12.75M18.9382 10.125C18.6896 10.125 18.4512 10.2238 18.2753 10.3996C18.0995 10.5754 18.0007 10.8139 18.0007 11.0625C18.0007 11.3111 18.0995 11.5496 18.2753 11.7254C18.4512 11.9012 18.6896 12 18.9382 12C19.1869 12 19.4253 11.9012 19.6012 11.7254C19.777 11.5496 19.8757 11.3111 19.8757 11.0625C19.8757 10.8139 19.777 10.5754 19.6012 10.3996C19.4253 10.2238 19.1869 10.125 18.9382 10.125Z" fill="white"/>
</svg>
