<svg width="46" height="47" viewBox="0 0 46 47" fill="none" xmlns="http://www.w3.org/2000/svg">
<rect y="0.455566" width="46" height="46" rx="23" fill="#222222"/>
<path d="M32.4986 30.777C31.2745 28.6285 29.363 26.9545 27.0718 26.0243C28.2112 25.1698 29.0528 23.9785 29.4774 22.6191C29.9021 21.2596 29.8883 19.8011 29.4379 18.4499C28.9875 17.0988 28.1234 15.9237 26.9681 15.0909C25.8127 14.2582 24.4246 13.8101 23.0004 13.8101C21.5762 13.8101 20.1881 14.2582 19.0327 15.0909C17.8773 15.9237 17.0133 17.0988 16.5629 18.4499C16.1125 19.8011 16.0987 21.2596 16.5233 22.6191C16.948 23.9785 17.7896 25.1698 18.929 26.0243C16.6378 26.9545 14.7263 28.6285 13.5022 30.777C13.4263 30.899 13.3758 31.035 13.3535 31.1769C13.3313 31.3188 13.3378 31.4637 13.3726 31.603C13.4075 31.7423 13.47 31.8732 13.5565 31.9879C13.643 32.1026 13.7516 32.1987 13.876 32.2706C14.0004 32.3424 14.1379 32.3885 14.2805 32.4062C14.423 32.4238 14.5676 32.4126 14.7058 32.3732C14.8439 32.3338 14.9727 32.2671 15.0845 32.1769C15.1963 32.0868 15.2889 31.9751 15.3566 31.8485C16.9745 29.052 19.8316 27.3842 23.0004 27.3842C26.1691 27.3842 29.0263 29.0529 30.6441 31.8485C30.791 32.0846 31.024 32.2544 31.2938 32.322C31.5636 32.3895 31.8491 32.3495 32.09 32.2103C32.3308 32.0712 32.5081 31.8439 32.5843 31.5764C32.6606 31.3089 32.6299 31.0222 32.4986 30.777ZM18.3575 20.5985C18.3575 19.6802 18.6298 18.7825 19.14 18.019C19.6502 17.2555 20.3753 16.6604 21.2236 16.309C22.072 15.9576 23.0055 15.8657 23.9062 16.0448C24.8068 16.224 25.6341 16.6661 26.2834 17.3155C26.9327 17.9648 27.3749 18.792 27.554 19.6927C27.7332 20.5933 27.6412 21.5268 27.2898 22.3752C26.9384 23.2236 26.3433 23.9487 25.5798 24.4588C24.8163 24.969 23.9187 25.2413 23.0004 25.2413C21.7695 25.2399 20.5894 24.7503 19.719 23.8799C18.8486 23.0095 18.3589 21.8294 18.3575 20.5985Z" fill="white"/>
</svg>
