<svg width="181" height="77" viewBox="0 0 181 77" fill="none" xmlns="http://www.w3.org/2000/svg">
<path d="M77.8823 35.9823C78.0713 37.3602 78.9018 39.5717 77.7793 40.507C77.3803 40.8423 75.6544 41.0685 75.013 41.2275C73.0275 41.72 71.777 42.0343 69.6847 42.7702C68.9325 43.0347 67.6076 43.5962 67.5331 44.0044C67.3842 44.838 69.3334 45.7368 69.992 46.2677C71.1356 47.1914 73.6976 49.5907 73.373 51.5129C73.1821 52.6455 71.294 54.1863 69.6847 53.7762C67.7412 53.2798 66.6492 50.8651 65.3815 49.6616C64.8069 49.1155 63.797 48.6479 63.0257 48.0154C62.1399 47.291 61.3438 46.4823 60.3625 46.0607C59.0433 45.4954 57.5485 45.2117 56.1625 44.6215C54.6982 43.9986 53.3294 43.7208 51.8594 43.2838C50.3607 42.8373 48.9308 42.0324 47.7605 41.8446C46.9148 41.7066 45.021 41.8139 44.9942 40.919C44.9694 40.1045 49.4405 38.7573 50.3225 38.4506C51.3038 38.1076 52.3767 37.6917 53.1919 37.4215C54.2381 37.0747 55.2404 36.6281 56.1625 36.4959C59.4137 36.0245 62.3327 37.6266 65.6908 37.318C68.6137 37.0459 71.861 35.8041 74.5013 35.5703C75.7155 35.463 77.2313 35.4936 77.8823 35.9823ZM55.2404 41.4326C56.7104 41.4326 56.7448 38.6078 54.8299 39.2728C53.6482 39.6829 54.0568 41.4326 55.2404 41.4326Z" fill="#9DB0BA"/>
<path d="M74.7076 19.1138C74.7114 20.6852 72.5007 21.6684 71.2235 22.5077C70.5247 22.9677 69.9119 23.5043 69.2762 23.947C67.222 25.3881 65.8131 26.7296 63.3332 28.2666C60.4409 30.0641 57.644 33.2071 53.4975 33.5137C52.7911 33.5654 52.1878 33.3834 51.5502 33.5137C50.0076 33.8241 48.6655 35.0679 46.9397 34.2343C47.4189 32.659 48.9977 32.2661 49.9103 31.0453C50.5784 30.1485 51.1111 28.8913 51.7545 27.8545C53.0278 25.8059 54.137 23.5484 55.1355 21.2717C55.6987 19.9857 55.6337 18.7401 56.0576 17.2606C56.5597 15.5128 57.5371 13.7842 58.2091 12.0154C58.8983 10.2044 59.0396 8.22858 60.1564 6.6667C61.1931 6.53639 62.6039 6.77594 63.127 7.48884C63.274 9.13504 62.8234 11.4117 62.4092 13.5562C62.182 14.7367 60.752 18.4871 62.2049 19.727C62.8292 20.2617 64.6485 20.1256 65.689 19.8305C66.5672 19.5814 67.894 18.6404 68.9669 17.9793C70.0398 17.32 71.2769 16.1568 72.3479 16.2315C73.3292 16.3024 74.7057 18.0272 74.7076 19.1138ZM56.8804 31.4574C57.4092 31.3616 58.2187 30.8058 58.0068 29.6042C57.8502 28.7284 57.0904 28.418 56.3668 28.4735C53.9022 28.6613 54.9178 31.8157 56.8804 31.4574Z" fill="#9DB0BA"/>
<path d="M67.3307 59.8433C67.7565 61.2288 66.6874 63.6493 65.4866 63.8543C64.3659 64.046 63.3503 62.6872 62.6172 61.8996C60.6871 60.8206 59.1331 59.3642 56.6741 58.8142C55.6413 60.1269 56.0365 62.1468 56.2637 64.1629C56.487 66.1502 57.18 68.5169 56.7753 69.8201C56.3763 71.1041 54.5875 71.3072 52.7796 71.0543C51.7277 69.5786 51.5902 67.6565 51.1396 65.9125C50.2596 62.5128 48.7647 59.1227 47.9629 55.5256C47.562 53.7242 47.1458 51.8384 46.5292 50.1769C45.7903 48.1915 43.5472 47.5342 43.1462 45.4453C43.2971 45.3916 43.4059 45.2939 43.5567 45.2402C44.9446 45.4376 46.974 46.6315 48.5795 47.0915C49.3413 47.31 50.3512 47.3119 51.1416 47.6051C53.967 48.661 56.5978 51.6334 59.1331 53.8794C60.2193 54.8414 61.6569 55.9242 63.2319 56.8613C64.6275 57.6911 66.9547 58.6168 67.3307 59.8433ZM51.9625 52.5398C54.2515 52.5111 54.1732 48.4426 51.3477 49.1459C49.4425 49.6192 50.0152 52.5648 51.9625 52.5398Z" fill="#9DB0BA"/>
<path d="M59.1352 6.15513C59.2134 6.93511 58.4078 8.1252 58.0088 8.82853C57.0886 10.4402 55.9202 12.2608 54.7309 13.6617C53.9978 14.5241 53.0012 15.1814 52.1688 16.0266C50.8516 17.3623 49.5286 19.248 48.4805 21.0667C47.0639 23.5197 45.1815 25.0854 44.4847 27.7512C44.3301 28.3433 44.3224 32.5326 43.2533 32.5863C42.8257 32.6073 41.9361 30.8078 41.5122 30.116C39.9697 27.5921 37.9537 24.8095 37.8239 21.2718C37.7742 19.8939 38.2992 17.1553 38.4386 15.4095C38.5264 14.3325 38.3909 12.8894 38.4386 11.5019C38.4825 10.2582 38.7326 9.02017 38.746 8.10796C38.7784 6.01715 37.8296 2.5657 38.6429 1.11498C39.4103 -0.251423 42.8524 -0.19393 44.3816 0.394407C45.2694 2.7765 44.8341 5.76802 45.3037 8.51998C45.445 9.35554 45.8574 10.7603 45.7142 12.0174C48.637 10.7334 51.0291 8.92435 53.0909 6.66873C54.0417 5.62812 54.6373 4.06242 56.1646 3.58331C57.2394 4.08733 58.9996 4.7964 59.1352 6.15513ZM42.5355 25.0797C44.9753 25.0164 45.3018 20.3596 42.0239 21.0686C41.1304 21.2622 40.5959 21.9329 40.4871 22.4063C40.0308 24.4204 41.434 25.1103 42.5355 25.0797Z" fill="#BDCD00"/>
<path d="M58.0067 29.6042C58.2187 30.8058 57.4092 31.3616 56.8804 31.4574C54.9178 31.8157 53.9022 28.6613 56.3687 28.4735C57.0904 28.418 57.8521 28.7284 58.0067 29.6042Z" fill="white"/>
<path d="M54.8318 39.2723C56.7466 38.6073 56.7104 41.4321 55.2423 41.4321C54.0567 41.4321 53.6482 39.6824 54.8318 39.2723Z" fill="white"/>
<path d="M51.3479 49.1461C54.1734 48.4428 54.2517 52.5114 51.9627 52.5401C50.0154 52.565 49.4426 49.6195 51.3479 49.1461Z" fill="white"/>
<path d="M44.8932 67.555C45.4564 68.906 46.3441 70.3587 46.2258 71.4625C46.0692 72.9094 44.0704 74.3295 42.3312 73.9328C40.3839 73.4863 39.9716 70.0348 38.9502 68.1721C38.2973 66.9743 37.5986 65.5677 35.8765 65.4987C35.2637 66.5987 35.4756 67.7217 35.1587 68.9961C35.0499 69.4388 34.5803 70.0866 34.3397 70.7439C33.6219 72.7025 33.0702 75.7342 31.7777 76.5046C30.1072 77.5031 27.0259 76.564 26.6556 74.7568C26.4246 73.6242 27.0546 71.7519 27.5777 70.4353C28.0626 69.2127 28.7785 68.0111 29.1145 66.8363C29.4371 65.7191 29.8342 64.3603 29.9335 63.3389C30.1111 61.5317 29.5364 59.8357 29.523 58.0937C29.502 55.1692 31.3272 52.3885 32.6998 50.3801C33.3775 49.3893 34.1889 48.5653 34.8514 47.6032C36.245 45.5757 37.3007 43.6458 38.5397 42.153C39.0151 41.5819 41.1304 39.493 40.7944 41.5359C40.9815 41.6547 41.3919 41.5397 41.5122 41.9479C40.2923 45.9436 39.437 51.001 39.9754 56.0373C39.9926 56.1887 40.0365 56.3804 40.0785 56.5509C40.6722 58.9905 42.23 61.48 43.3564 63.8525C43.8566 64.9084 44.33 66.2116 44.8932 67.555ZM36.182 58.6092C37.9307 58.5708 38.2572 55.1386 35.7715 55.7288C33.9903 56.1543 34.6681 58.6418 36.182 58.6092Z" fill="#9DB0BA"/>
<path d="M42.0219 21.0686C45.2999 20.3595 44.9753 25.0164 42.5336 25.0796C41.4339 25.1103 40.0288 24.4223 40.4851 22.4062C40.5939 21.931 41.1285 21.2621 42.0219 21.0686Z" fill="white"/>
<path d="M37.5146 34.0296C37.5737 35.1967 37.7112 36.7624 37.0029 36.8065C36.3519 36.8448 35.6589 34.3228 35.4661 33.8245C34.1889 30.4861 32.6425 27.1535 30.6513 25.0799C27.4211 21.7186 20.7622 19.8041 15.5904 17.7784C14.4049 17.3147 11.2033 16.3833 10.8768 15.105C10.4664 13.5029 11.9326 10.5881 12.8241 10.3734C13.582 10.1914 15.0807 10.9388 15.7947 11.299C18.3892 12.6099 21.1936 13.4301 23.9905 14.4879C23.4998 11.14 21.774 8.74447 20.6095 5.43675C20.2906 4.52454 19.5537 3.0719 19.7904 2.14627C20.0692 1.04625 23.1944 -0.431297 24.6052 0.70705C25.4166 1.35863 25.6972 3.13514 26.2451 4.40955C26.8026 5.70888 27.4822 6.99096 27.9862 8.00857C29.1393 10.3351 30.2008 12.7766 31.982 14.693C33.7899 16.6382 35.2332 18.5469 35.6704 21.686C35.8899 23.2574 35.8937 24.9784 36.182 26.5192C36.7356 29.4685 37.3504 30.7199 37.5146 34.0296ZM32.5967 20.8619C34.1774 20.4882 33.9445 17.6749 32.0851 17.88C29.8514 18.1253 30.4795 21.3659 32.5967 20.8619Z" fill="#9DB0BA"/>
<path d="M35.7734 55.7284C38.2591 55.1382 37.9307 58.5685 36.1839 58.6088C34.668 58.6414 33.9903 56.1539 35.7734 55.7284Z" fill="white"/>
<path d="M32.6996 36.189C33.8279 37.0016 35.3819 37.8429 35.1585 39.3779C34.1314 40.1157 33.2513 39.4143 32.2892 39.1729C28.4729 38.2089 24.2041 37.2315 18.9694 37.6301C14.6204 37.9617 11.3921 40.1061 8.10847 40.9206C7.33147 41.1123 6.42273 41.1908 5.54646 41.3326C3.19062 41.7102 1.73398 42.0532 0.729791 39.7899C0.361335 38.9544 -0.257214 37.289 0.115061 36.4995C0.578973 35.5221 4.632 34.8954 5.75264 34.5447C7.75338 33.9181 9.85148 33.5214 11.1821 32.4884C9.37421 30.1696 5.70491 28.6901 2.98444 26.8293C2.15971 26.2658 0.813792 25.5625 0.729791 24.566C0.653427 23.6404 2.15971 21.5706 2.98444 21.584C6.05619 21.63 8.4502 24.2402 11.4895 25.0815C13.4788 25.6334 15.533 25.9975 17.4325 26.5207C19.3798 27.0611 21.4531 27.4732 23.0682 28.2685C25.4317 29.4356 27.6959 31.7449 29.626 33.4121C30.6244 34.2726 31.6057 35.3956 32.6996 36.189ZM22.967 34.5428C26.3958 35.3477 26.4359 29.7422 23.0701 30.5318C21.0636 31.0013 21.1209 34.1078 22.967 34.5428Z" fill="#9DB0BA"/>
<path d="M33.6219 43.0786C34.5784 44.2227 33.2897 45.3208 32.4956 46.164C31.7415 46.967 30.701 47.8524 30.1397 48.7359C29.1298 50.3284 28.6583 52.4403 27.4765 53.776C26.4991 54.8799 24.59 55.6982 23.2765 56.3478C20.3155 57.812 17.8241 59.6076 15.3881 62.0051C13.6336 63.7318 11.6214 66.0429 9.75242 63.3427C8.46187 61.48 8.98878 60.6023 10.4702 59.0231C12.3278 57.0454 14.3514 54.5464 16.1059 52.6472C14.2999 52.4345 12.8413 51.9056 10.8807 51.8251C8.30532 51.7197 5.07703 52.5016 3.39893 51.208C2.85293 50.7864 2.16565 48.893 2.68111 47.609C3.52684 45.5125 9.44506 45.7578 12.6218 45.7578C17.2514 45.7578 22.572 46.1315 26.8637 45.4492C29.4792 45.0314 31.1458 43.8663 33.1141 43.1859C33.3088 43.1112 33.3317 43.0844 33.6219 43.0786ZM25.6304 53.157C27.3849 52.996 27.425 49.3893 24.9126 50.1751C23.2173 50.7059 23.9008 53.3161 25.6304 53.157Z" fill="#9DB0BA"/>
<path d="M32.085 17.8796C33.9464 17.6765 34.1774 20.4879 32.5966 20.8616C30.4794 21.3656 29.8514 18.1249 32.085 17.8796Z" fill="white"/>
<path d="M24.9124 50.1753C27.4248 49.3895 27.3828 52.9981 25.6302 53.1572C23.9006 53.3162 23.2171 50.7061 24.9124 50.1753Z" fill="white"/>
<path d="M23.0684 30.5315C26.436 29.742 26.394 35.3475 22.9653 34.5426C21.1211 34.1075 21.0638 31.001 23.0684 30.5315Z" fill="white"/>
<path d="M110.331 33.1723H116.658L105.671 14.1826H99.3443L88.3555 33.1723H94.6822L96.6543 29.579H108.361L110.331 33.1723ZM102.538 18.8816L106.358 25.8746H98.6856L102.538 18.8816ZM142.32 14.1826H136.637V18.9928C136.24 19.4355 135.766 19.8686 135.214 20.2921C134.665 20.7156 134.048 21.0932 133.364 21.4247C132.681 21.7563 131.935 22.0246 131.125 22.2258C130.316 22.4289 129.457 22.5305 128.55 22.5305C127.481 22.5305 126.568 22.4289 125.814 22.2258C125.06 22.0226 124.447 21.7256 123.972 21.3346C123.498 20.9437 123.151 20.4569 122.933 19.8763C122.714 19.2956 122.605 18.6325 122.605 17.8851V14.1807H116.904V18.3968C116.904 19.6693 117.086 20.8115 117.446 21.8252C117.807 22.839 118.416 23.6976 119.273 24.4028C120.129 25.1081 121.268 25.6466 122.689 26.0203C124.109 26.394 125.885 26.5799 128.015 26.5799C129.85 26.5799 131.484 26.3556 132.922 25.9091C134.357 25.4626 135.596 24.8934 136.635 24.2016V25.8746C136.635 26.1142 136.581 26.3729 136.474 26.6488C136.367 26.9248 136.186 27.2046 135.932 27.4844C135.678 27.7661 135.34 28.0382 134.924 28.3008C134.506 28.5633 133.981 28.7952 133.349 28.9984C132.717 29.2015 131.971 29.3625 131.11 29.4813C130.249 29.602 129.252 29.6614 128.122 29.6614C126.919 29.6614 125.782 29.6135 124.707 29.5158C123.632 29.42 122.626 29.2858 121.688 29.1153C120.751 28.9447 119.882 28.7492 119.082 28.5269C118.283 28.3065 117.557 28.0708 116.904 27.8217V32.3272C117.506 32.5207 118.244 32.6989 119.121 32.8599C119.997 33.0209 120.936 33.1646 121.94 33.2892C122.945 33.4138 123.974 33.5096 125.027 33.5786C126.081 33.6476 127.087 33.6821 128.046 33.6821C130.226 33.6821 132.194 33.5077 133.952 33.157C135.711 32.8063 137.207 32.2984 138.446 31.6296C139.684 30.9627 140.64 30.1444 141.312 29.1766C141.984 28.2088 142.32 27.1088 142.32 25.8727V14.1826ZM171.249 33.1723V20.2365C171.249 19.2419 171.042 18.3412 170.63 17.5344C170.218 16.7276 169.624 16.0415 168.849 15.4743C168.074 14.907 167.129 14.4701 166.014 14.1615C164.899 13.853 163.633 13.6978 162.217 13.6978C161.087 13.6978 160.01 13.7897 158.992 13.9737C157.973 14.1577 157.011 14.3972 156.104 14.6924C155.197 14.9875 154.342 15.3171 153.536 15.6812C152.73 16.0454 151.972 16.4114 151.258 16.7793V14.1807H145.588V33.1704H151.258V21.258C151.85 20.8076 152.524 20.3745 153.284 19.9587C154.044 19.5447 154.84 19.1806 155.676 18.8663C156.512 18.5539 157.354 18.3029 158.206 18.1132C159.055 17.9253 159.869 17.8295 160.644 17.8295C161.663 17.8295 162.495 17.9426 163.143 18.1687C163.79 18.3949 164.294 18.713 164.655 19.1231C165.015 19.5332 165.264 20.0257 165.395 20.6026C165.527 21.1794 165.594 21.8214 165.594 22.5305V33.1723H171.249ZM180.202 33.1723V14.1826H174.532V33.1723H180.202Z" fill="#BDCD00"/>
<path d="M93.4623 55.7067H99.0388L104.766 62.6997H110.742L104.547 55.195C105.106 55.0015 105.639 54.7581 106.143 54.4629C106.647 54.1678 107.089 53.8075 107.471 53.3783C107.851 52.949 108.155 52.4373 108.38 51.8375C108.605 51.2376 108.718 50.5381 108.718 49.7371C108.718 48.8249 108.582 47.9989 108.311 47.2553C108.04 46.5137 107.605 45.8813 107.004 45.3543C106.402 44.8292 105.621 44.4229 104.663 44.1373C103.705 43.8518 102.536 43.7081 101.16 43.7081H88.3555V62.6978H93.4623V55.7067ZM103.411 50.6493C103.313 50.908 103.147 51.1169 102.909 51.2779C102.67 51.4388 102.351 51.5577 101.952 51.6305C101.553 51.7052 101.055 51.7416 100.457 51.7416H93.4623V47.6789H100.457C101.055 47.6789 101.551 47.7153 101.952 47.79C102.351 47.8628 102.67 47.9816 102.909 48.1426C103.147 48.3036 103.315 48.5144 103.411 48.7712C103.506 49.0299 103.556 49.3423 103.556 49.7102C103.554 50.0782 103.506 50.3906 103.411 50.6493ZM132.421 62.6997V50.1089C132.421 48.9379 132.148 47.9299 131.602 47.0828C131.056 46.2358 130.298 45.5344 129.331 44.9825C128.363 44.4286 127.208 44.0223 125.867 43.7598C124.527 43.4973 123.063 43.365 121.475 43.365C120.667 43.365 119.823 43.3995 118.941 43.4685C118.061 43.5375 117.189 43.6295 116.326 43.7445C115.463 43.8594 114.632 43.9955 113.834 44.1527C113.036 44.3098 112.315 44.4708 111.673 44.6356V49.1967C112.288 48.9571 112.971 48.7271 113.724 48.5048C114.476 48.2844 115.272 48.0909 116.112 47.9242C116.952 47.7593 117.824 47.6271 118.727 47.5313C119.632 47.4336 120.547 47.3856 121.475 47.3856C122.649 47.3856 123.615 47.4604 124.373 47.606C125.131 47.7536 125.726 47.9452 126.163 48.179C126.599 48.4148 126.9 48.685 127.064 48.9954C127.231 49.304 127.313 49.6144 127.313 49.9287V50.3292C124.321 50.496 121.73 50.726 119.541 51.0211C117.351 51.3162 115.541 51.7359 114.109 52.2782C112.677 52.8225 111.612 53.5201 110.915 54.371C110.219 55.2238 109.869 56.2893 109.869 57.5714C109.869 58.5851 110.093 59.4418 110.537 60.1413C110.982 60.8408 111.572 61.408 112.307 61.8411C113.042 62.2742 113.884 62.5866 114.833 62.7802C115.784 62.9737 116.767 63.0695 117.786 63.0695C118.659 63.0695 119.523 63.0216 120.381 62.9239C121.24 62.8262 122.072 62.6824 122.88 62.4889C123.687 62.2953 124.464 62.0596 125.213 61.7836C125.961 61.5077 126.66 61.1895 127.313 60.8293V62.6958H132.421V62.6997ZM127.313 56.5365C126.816 56.8872 126.255 57.2168 125.627 57.5254C124.999 57.8339 124.327 58.1022 123.611 58.3264C122.895 58.5526 122.137 58.7289 121.339 58.8592C120.541 58.9876 119.724 59.0527 118.888 59.0527C118.136 59.0527 117.511 59.0068 117.015 58.9148C116.519 58.8228 116.121 58.6982 115.824 58.5411C115.526 58.3839 115.316 58.2019 115.197 57.9949C115.077 57.7879 115.018 57.5733 115.018 57.3529C115.018 57.1689 115.049 56.9658 115.108 56.7454C115.167 56.525 115.325 56.3027 115.583 56.0823C115.841 55.8619 116.228 55.6454 116.746 55.4326C117.265 55.2199 117.977 55.0225 118.886 54.8386C119.795 54.6546 120.934 54.4936 122.307 54.3556C123.68 54.2176 125.346 54.1122 127.311 54.0375V56.5365H127.313ZM128.25 39.3578L121.793 35.6821L115.337 39.3578L117.003 41.9565L121.795 39.469L126.587 41.9565L128.25 39.3578ZM156.205 47.5811C155.93 46.7896 155.487 46.1055 154.876 45.5286C154.265 44.9537 153.473 44.5053 152.501 44.1872C151.528 43.869 150.344 43.71 148.948 43.71H135.359V62.6997H140.468V56.7013H148.948C150.344 56.7013 151.528 56.5403 152.501 56.2184C153.475 55.8964 154.265 55.4461 154.876 54.8711C155.487 54.2962 155.93 53.6082 156.205 52.811C156.48 52.0138 156.617 51.1418 156.617 50.1913C156.617 49.2446 156.48 48.3726 156.205 47.5811ZM151.268 51.3948C151.144 51.6995 150.94 51.9448 150.655 52.1345C150.371 52.3242 149.998 52.4565 149.54 52.535C149.082 52.6136 148.517 52.6519 147.847 52.6519H140.468V47.7593H147.847C148.517 47.7593 149.082 47.8073 149.54 47.905C149.998 48.0008 150.371 48.1522 150.655 48.3534C150.94 48.5566 151.144 48.8172 151.268 49.1334C151.392 49.4515 151.453 49.831 151.453 50.2737C151.455 50.7183 151.392 51.092 151.268 51.3948ZM179.332 57.3241C178.946 57.5541 178.438 57.7841 177.81 58.016C177.182 58.2459 176.478 58.4567 175.697 58.6445C174.916 58.8343 174.076 58.9857 173.177 59.1007C172.278 59.2156 171.359 59.2731 170.424 59.2731C169.103 59.2731 167.967 59.1754 167.016 58.9818C166.065 58.7883 165.266 58.5162 164.613 58.1674C163.962 57.8167 163.444 57.3931 163.064 56.8968C162.683 56.3985 162.41 55.8504 162.245 55.2525H180.888V53.98C180.888 52.238 180.605 50.701 180.042 49.3634C179.477 48.0276 178.683 46.9027 177.659 45.9905C176.636 45.0783 175.411 44.3903 173.984 43.9246C172.556 43.4589 170.985 43.227 169.269 43.227C167.406 43.227 165.716 43.4819 164.202 43.9936C162.688 44.5053 161.396 45.2144 160.327 46.1227C159.258 47.0311 158.431 48.0985 157.849 49.3289C157.266 50.5592 156.974 51.893 156.974 53.3303C156.974 54.8788 157.263 56.2644 157.841 57.4909C158.42 58.7174 159.26 59.7522 160.361 60.6012C161.463 61.4483 162.818 62.096 164.429 62.5425C166.041 62.9891 167.879 63.2133 169.943 63.2133C171.558 63.2133 173.139 63.1002 174.685 62.8741C176.231 62.6479 177.78 62.2781 179.332 61.7626V57.3241ZM162.245 51.4925C162.337 51.0786 162.539 50.6263 162.851 50.1376C163.162 49.6489 163.601 49.1928 164.166 48.7693C164.731 48.3458 165.43 47.9912 166.266 47.7057C167.1 47.4201 168.093 47.2783 169.24 47.2783C170.46 47.2783 171.48 47.4086 172.297 47.6712C173.114 47.9337 173.774 48.2672 174.278 48.6735C174.782 49.0798 175.153 49.532 175.388 50.0341C175.622 50.5362 175.762 51.023 175.808 51.4925H162.245ZM172.847 35.7358L166.224 39.605L167.463 41.9545L174.649 39.3846L172.847 35.7358Z" fill="#9DB0BA"/>
</svg>
