<svg width="50" height="50" viewBox="0 0 50 50" fill="none" xmlns="http://www.w3.org/2000/svg">
<rect width="50" height="50" rx="25" fill="#BDCD00"/>
<path d="M41.7948 23.9065C41.8768 24.5156 42.2371 25.4933 41.75 25.9067C41.5769 26.0549 40.828 26.1549 40.5497 26.2252C39.6881 26.443 39.1455 26.5819 38.2376 26.9072C37.9112 27.0241 37.3363 27.2723 37.304 27.4528C37.2394 27.8213 38.0852 28.2187 38.371 28.4533C38.8672 28.8617 39.9789 29.9223 39.8381 30.7721C39.7552 31.2728 38.936 31.9539 38.2376 31.7726C37.3943 31.5532 36.9205 30.4857 36.3704 29.9537C36.1211 29.7122 35.6829 29.5055 35.3482 29.226C34.9638 28.9057 34.6184 28.5482 34.1926 28.3618C33.6201 28.1119 32.9715 27.9865 32.3701 27.7256C31.7347 27.4503 31.1408 27.3274 30.5029 27.1343C29.8526 26.9369 29.2321 26.581 28.7243 26.498C28.3573 26.437 27.5356 26.4845 27.524 26.0888C27.5132 25.7288 29.4533 25.1332 29.836 24.9977C30.2618 24.846 30.7274 24.6622 31.0811 24.5427C31.5351 24.3894 31.97 24.192 32.3701 24.1335C33.7809 23.9251 35.0475 24.6334 36.5046 24.497C37.7729 24.3767 39.182 23.8277 40.3277 23.7243C40.8545 23.6769 41.5123 23.6905 41.7948 23.9065ZM31.97 26.3159C32.6078 26.3159 32.6228 25.0671 31.7919 25.3611C31.2791 25.5424 31.4564 26.3159 31.97 26.3159Z" fill="white"/>
<path d="M40.417 16.4493C40.4186 17.144 39.4593 17.5786 38.9051 17.9497C38.6019 18.153 38.336 18.3902 38.0602 18.5859C37.1688 19.223 36.5575 19.816 35.4814 20.4955C34.2263 21.2901 33.0127 22.6795 31.2135 22.8151C30.907 22.838 30.6452 22.7575 30.3685 22.8151C29.6992 22.9523 29.1168 23.5021 28.3679 23.1336C28.5758 22.4372 29.2609 22.2636 29.6569 21.7239C29.9468 21.3274 30.178 20.7717 30.4571 20.3133C31.0097 19.4077 31.491 18.4097 31.9242 17.4033C32.1686 16.8348 32.1404 16.2841 32.3243 15.6301C32.5422 14.8575 32.9664 14.0933 33.2579 13.3114C33.557 12.5108 33.6183 11.6373 34.1029 10.9469C34.5527 10.8893 35.1649 10.9952 35.3919 11.3103C35.4557 12.038 35.2602 13.0445 35.0804 13.9925C34.9818 14.5144 34.3614 16.1723 34.9918 16.7204C35.2627 16.9568 36.0521 16.8966 36.5036 16.7662C36.8847 16.656 37.4604 16.2401 37.926 15.9478C38.3915 15.6564 38.9283 15.1421 39.3931 15.1752C39.8188 15.2065 40.4161 15.969 40.417 16.4493ZM32.6814 21.9061C32.9108 21.8637 33.2621 21.618 33.1701 21.0868C33.1022 20.6997 32.7725 20.5624 32.4585 20.587C31.3891 20.67 31.8298 22.0645 32.6814 21.9061Z" fill="white"/>
<path d="M37.2159 34.4548C37.4007 35.0673 36.9368 36.1373 36.4157 36.228C35.9294 36.3127 35.4887 35.712 35.1706 35.3638C34.3331 34.8869 33.6588 34.243 32.5918 33.9999C32.1437 34.5802 32.3151 35.4731 32.4137 36.3644C32.5106 37.2429 32.8113 38.2892 32.6357 38.8653C32.4626 39.4329 31.6864 39.5227 30.9019 39.4108C30.4454 38.7585 30.3858 37.9088 30.1903 37.1379C29.8084 35.6349 29.1598 34.1363 28.8118 32.5461C28.6379 31.7498 28.4573 30.9161 28.1897 30.1816C27.8691 29.3039 26.8958 29.0133 26.7218 28.0899C26.7872 28.0662 26.8345 28.023 26.8999 27.9993C27.5022 28.0865 28.3827 28.6143 29.0794 28.8176C29.4099 28.9142 29.8482 28.9151 30.1911 29.0447C31.4172 29.5115 32.5587 30.8255 33.6588 31.8184C34.1302 32.2437 34.7539 32.7223 35.4374 33.1366C36.0429 33.5034 37.0527 33.9126 37.2159 34.4548ZM30.5473 31.2262C31.5406 31.2135 31.5066 29.4149 30.2806 29.7258C29.4539 29.9351 29.7024 31.2372 30.5473 31.2262Z" fill="white"/>
<path d="M33.66 10.721C33.6939 11.0658 33.3443 11.5919 33.1712 11.9028C32.7719 12.6153 32.2649 13.4201 31.7488 14.0394C31.4307 14.4207 30.9983 14.7112 30.6371 15.0848C30.0655 15.6753 29.4915 16.509 29.0367 17.3129C28.422 18.3973 27.6052 19.0895 27.3028 20.2679C27.2357 20.5297 27.2324 22.3816 26.7685 22.4054C26.583 22.4147 26.1969 21.6192 26.013 21.3133C25.3437 20.1976 24.4689 18.9675 24.4126 17.4036C24.391 16.7945 24.6188 15.5838 24.6793 14.8121C24.7174 14.3359 24.6586 13.698 24.6793 13.0846C24.6984 12.5348 24.8069 11.9875 24.8127 11.5843C24.8268 10.66 24.415 9.13422 24.7679 8.4929C25.101 7.88885 26.5946 7.91427 27.2581 8.17436C27.6433 9.22741 27.4544 10.5499 27.6582 11.7664C27.7195 12.1358 27.8985 12.7568 27.8363 13.3125C29.1046 12.7449 30.1426 11.9452 31.0373 10.948C31.4498 10.488 31.7083 9.79587 32.371 9.58407C32.8374 9.80688 33.6011 10.1203 33.66 10.721ZM26.457 19.0869C27.5157 19.059 27.6574 17.0003 26.235 17.3138C25.8473 17.3994 25.6154 17.6959 25.5682 17.9051C25.3702 18.7955 25.9791 19.1005 26.457 19.0869Z" fill="#9DB0BA"/>
<path d="M33.1703 21.0867C33.2623 21.6178 32.911 21.8635 32.6816 21.9058C31.83 22.0642 31.3893 20.67 32.4596 20.587C32.7727 20.5624 33.1032 20.6996 33.1703 21.0867Z" fill="#BDCD00"/>
<path d="M31.7927 25.361C32.6236 25.067 32.6079 26.3156 31.9709 26.3156C31.4564 26.3156 31.2791 25.5422 31.7927 25.361Z" fill="#BDCD00"/>
<path d="M30.2809 29.7258C31.5069 29.4149 31.5409 31.2132 30.5476 31.2259C29.7027 31.2369 29.4542 29.935 30.2809 29.7258Z" fill="#BDCD00"/>
<path d="M27.4802 37.8636C27.7245 38.4609 28.1097 39.1031 28.0584 39.5911C27.9905 40.2307 27.1231 40.8584 26.3685 40.6831C25.5235 40.4857 25.3446 38.9599 24.9014 38.1364C24.618 37.6069 24.3149 36.9851 23.5676 36.9546C23.3017 37.4409 23.3937 37.9373 23.2562 38.5007C23.2089 38.6964 23.0052 38.9828 22.9008 39.2734C22.5893 40.1392 22.3499 41.4794 21.7891 41.82C21.0642 42.2614 19.7272 41.8463 19.5665 41.0474C19.4662 40.5467 19.7396 39.719 19.9666 39.137C20.177 38.5965 20.4877 38.0653 20.6335 37.5459C20.7735 37.052 20.9458 36.4514 20.9888 35.9998C21.0659 35.2009 20.8165 34.4512 20.8107 33.6811C20.8016 32.3883 21.5936 31.159 22.1892 30.2712C22.4833 29.8332 22.8353 29.4689 23.1228 29.0436C23.7275 28.1473 24.1856 27.2942 24.7233 26.6342C24.9295 26.3817 25.8474 25.4583 25.7016 26.3614C25.7828 26.4139 25.9609 26.3631 26.0131 26.5436C25.4837 28.3099 25.1126 30.5457 25.3462 32.7721C25.3537 32.839 25.3727 32.9237 25.3909 32.9991C25.6486 34.0776 26.3245 35.1781 26.8133 36.2269C27.0303 36.6937 27.2358 37.2698 27.4802 37.8636ZM23.7002 33.909C24.459 33.892 24.6007 32.3747 23.5221 32.6357C22.7492 32.8237 23.0433 33.9234 23.7002 33.909Z" fill="white"/>
<path d="M26.2343 17.3137C27.6566 17.0003 27.5158 19.0586 26.4563 19.0866C25.9791 19.1001 25.3694 18.796 25.5674 17.9049C25.6146 17.6949 25.8466 17.3993 26.2343 17.3137Z" fill="#BDCD00"/>
<path d="M24.2784 23.0433C24.304 23.5592 24.3637 24.2514 24.0564 24.2709C23.7739 24.2878 23.4732 23.1729 23.3895 22.9526C22.8353 21.4768 22.1643 20.0036 21.3003 19.0869C19.8986 17.601 17.0092 16.7546 14.7651 15.8592C14.2506 15.6541 12.8614 15.2424 12.7197 14.6773C12.5416 13.9691 13.1778 12.6805 13.5647 12.5856C13.8936 12.5051 14.5439 12.8355 14.8537 12.9948C15.9795 13.5743 17.1964 13.9369 18.41 14.4045C18.1971 12.9245 17.4482 11.8655 16.9429 10.4033C16.8046 10 16.4848 9.35786 16.5875 8.94866C16.7085 8.46238 18.0646 7.8092 18.6767 8.31243C19.0288 8.60047 19.1506 9.38581 19.3883 9.94919C19.6302 10.5236 19.9251 11.0903 20.1438 11.5402C20.6442 12.5687 21.1048 13.648 21.8777 14.4952C22.6622 15.3551 23.2884 16.1989 23.4781 17.5866C23.5734 18.2813 23.5751 19.042 23.7001 19.7232C23.9404 21.027 24.2071 21.5802 24.2784 23.0433ZM22.1444 17.2223C22.8303 17.0571 22.7293 15.8134 21.9224 15.9041C20.9532 16.0125 21.2257 17.4451 22.1444 17.2223Z" fill="white"/>
<path d="M23.5226 32.6356C24.6012 32.3748 24.4587 33.8909 23.7008 33.9087C23.043 33.9231 22.7489 32.8237 23.5226 32.6356Z" fill="#BDCD00"/>
<path d="M22.189 23.9979C22.6786 24.3571 23.3529 24.7291 23.256 25.4076C22.8103 25.7338 22.4284 25.4237 22.0109 25.317C20.3549 24.8909 18.5026 24.4588 16.2312 24.635C14.3441 24.7816 12.9433 25.7296 11.5184 26.0896C11.1813 26.1743 10.787 26.2091 10.4067 26.2718C9.38447 26.4387 8.75241 26.5903 8.31667 25.5898C8.15679 25.2204 7.88839 24.4842 8.04993 24.1352C8.25123 23.7031 10.0099 23.4261 10.4962 23.271C11.3643 22.994 12.2748 22.8186 12.8521 22.362C12.0677 21.3369 10.4755 20.6829 9.29501 19.8603C8.93714 19.6112 8.35312 19.3003 8.31667 18.8598C8.28353 18.4506 8.93714 17.5356 9.29501 17.5415C10.6279 17.5619 11.6667 18.7157 12.9855 19.0876C13.8487 19.3316 14.7401 19.4926 15.5643 19.7239C16.4093 19.9628 17.3089 20.1449 18.0097 20.4965C19.0353 21.0124 20.0178 22.0333 20.8553 22.7704C21.2885 23.1507 21.7143 23.6472 22.189 23.9979ZM17.9658 23.2702C19.4536 23.626 19.471 21.148 18.0106 21.497C17.1399 21.7046 17.1648 23.0779 17.9658 23.2702Z" fill="white"/>
<path d="M22.5892 27.0435C23.0042 27.5492 22.445 28.0347 22.1004 28.4074C21.7732 28.7624 21.3217 29.1538 21.0782 29.5443C20.64 30.2484 20.4354 31.182 19.9226 31.7724C19.4984 32.2604 18.67 32.6222 18.1001 32.9094C16.8153 33.5566 15.7342 34.3504 14.6772 35.4103C13.9159 36.1736 13.0427 37.1953 12.2317 36.0016C11.6717 35.1781 11.9004 34.7901 12.5432 34.092C13.3492 33.2177 14.2274 32.113 14.9886 31.2735C14.205 31.1794 13.5721 30.9456 12.7213 30.91C11.6038 30.8634 10.203 31.2091 9.47484 30.6372C9.23792 30.4508 8.93969 29.6138 9.16336 29.0462C9.53034 28.1194 12.0984 28.2278 13.4768 28.2278C15.4857 28.2278 17.7944 28.393 19.6567 28.0914C20.7916 27.9067 21.5148 27.3916 22.3688 27.0909C22.4533 27.0579 22.4633 27.046 22.5892 27.0435ZM19.1215 31.4988C19.8828 31.4276 19.9002 29.8332 18.81 30.1806C18.0744 30.4153 18.371 31.5691 19.1215 31.4988Z" fill="white"/>
<path d="M21.9224 15.904C22.7301 15.8143 22.8303 17.0569 22.1444 17.222C21.2257 17.4448 20.9532 16.0125 21.9224 15.904Z" fill="#BDCD00"/>
<path d="M18.81 30.1805C19.9002 29.8332 19.882 31.4282 19.1215 31.4985C18.371 31.5688 18.0744 30.4151 18.81 30.1805Z" fill="#BDCD00"/>
<path d="M18.0097 21.4969C19.471 21.1479 19.4528 23.6255 17.965 23.2698C17.1648 23.0775 17.1399 21.7044 18.0097 21.4969Z" fill="#BDCD00"/>
</svg>
