<svg width="40" height="22" viewBox="0 0 40 22" fill="none" xmlns="http://www.w3.org/2000/svg">
<path d="M10.7608 6.62477C10.9611 6.39505 11.1149 6.12737 11.2133 5.83708C11.3118 5.54679 11.3529 5.23959 11.3343 4.93311C10.7565 4.99191 10.222 5.27144 9.83882 5.71531C9.45563 6.15918 9.25222 6.73435 9.26963 7.32477C9.84316 7.38311 10.4167 7.03311 10.7608 6.62477ZM11.3343 7.44144C10.474 7.44144 9.72845 7.90811 9.32698 7.90811C8.92551 7.90811 8.29463 7.49977 7.60639 7.49977C6.80345 7.49977 6.00051 8.02477 5.54169 8.78311C4.62404 10.3581 5.31227 12.7498 6.17257 14.0331C6.63139 14.6164 7.09021 15.3748 7.77845 15.3164C8.40933 15.3164 8.6961 14.9081 9.49904 14.9081C10.2446 14.9081 10.474 15.3164 11.1623 15.3164C11.8505 15.3164 12.3093 14.7331 12.7108 14.0331C13.227 13.3331 13.399 12.6331 13.399 12.5748C13.399 12.5748 12.0799 11.9914 12.0799 10.4748C12.0799 9.13311 13.1123 8.54977 13.1696 8.49144C12.956 8.17892 12.6738 7.92132 12.3452 7.73906C12.0167 7.5568 11.651 7.4549 11.277 7.44144M18.6182 5.69144C20.4534 5.69144 21.7152 6.97477 21.7152 8.84144C21.7152 10.7081 20.3961 11.9914 18.5608 11.9914H16.5534V15.2581H15.0049V5.69144H18.5608H18.6182ZM16.5534 10.7081H18.274C19.4784 10.7081 20.224 10.0081 20.224 8.84144C20.224 7.61644 19.4784 6.91644 18.2167 6.91644H16.4961V10.7081H16.5534ZM22.1167 13.2748C22.1167 12.0498 23.0343 11.2914 24.6402 11.2331L26.5329 11.1164V10.5331C26.5329 9.77477 26.0167 9.36644 25.1564 9.36644C24.3535 9.36644 23.8373 9.71644 23.7226 10.3581H22.4035C22.4035 9.07477 23.5505 8.14144 25.2137 8.14144C26.9343 8.14144 27.9667 9.01644 27.9667 10.4748V15.2581H26.5902V14.0914C26.3738 14.4848 26.0572 14.8115 25.6737 15.0374C25.2902 15.2632 24.8539 15.3798 24.4108 15.3748C23.0343 15.3748 22.1167 14.4998 22.1167 13.2748ZM26.5329 12.6914V12.1081L24.8123 12.2248C24.0093 12.2248 23.5505 12.6331 23.5505 13.2164C23.5505 13.7998 24.0093 14.2664 24.7549 14.2664C25.7873 14.2664 26.5329 13.5664 26.5329 12.6331V12.6914ZM29.2284 17.8248V16.6581H29.6873C30.3182 16.6581 30.6623 16.4248 30.8917 15.7248L31.0064 15.2581L28.5402 8.25811H30.0887L31.8093 13.9748L33.5299 8.25811H35.0784L32.4976 15.6664C31.924 17.4164 31.2358 17.9414 29.802 17.9414H29.2284V17.8248Z" fill="white"/>
</svg>
