<svg width="40" height="22" viewBox="0 0 40 22" fill="none" xmlns="http://www.w3.org/2000/svg">
<path d="M19.3635 11.4668V15.3168H18.2164V5.86683H21.3135C21.685 5.85813 22.0543 5.926 22.3993 6.06635C22.7443 6.20671 23.0578 6.41664 23.3208 6.6835C23.8338 7.18101 24.1334 7.86399 24.1549 8.58456C24.1764 9.30513 23.9179 10.0053 23.4355 10.5335L23.3208 10.7085C22.7473 11.2335 22.1164 11.4668 21.3135 11.4668H19.3635ZM19.3635 7.0335V10.3585H21.3135C21.7723 10.3585 22.1738 10.1835 22.4605 9.8335C23.0914 9.19183 23.0341 8.0835 22.4605 7.50016C22.3091 7.34921 22.1298 7.23025 21.9329 7.15015C21.736 7.07006 21.5255 7.03041 21.3135 7.0335H19.3635ZM26.8194 8.66683C27.2011 8.6334 27.5856 8.67812 27.9501 8.79835C28.3145 8.91857 28.6516 9.11188 28.9414 9.36683C29.4003 9.8335 29.687 10.5335 29.687 11.3502V15.3168H28.54V14.4418C27.9664 15.1418 27.3929 15.5502 26.5326 15.5502C25.8444 15.5502 25.2708 15.3168 24.812 14.9085C24.5986 14.71 24.4313 14.4657 24.3222 14.1933C24.2131 13.9209 24.1649 13.6272 24.1811 13.3335C24.1811 12.6335 24.4105 12.1668 24.9267 11.7002C25.3855 11.2918 26.0738 11.1168 26.8767 11.1168C27.565 11.1168 28.1385 11.2335 28.5973 11.5252V11.2335C28.5973 10.8252 28.4253 10.4168 28.1385 10.1835C27.8261 9.88888 27.4174 9.72259 26.9914 9.71683C26.3605 9.71683 25.8444 10.0085 25.4429 10.5918L24.3532 9.8335C24.6361 9.42724 25.0165 9.10139 25.4582 8.88696C25.8999 8.67253 26.3883 8.57667 26.8767 8.6085L26.8194 8.66683ZM25.3282 13.3335C25.3282 13.6252 25.5003 13.9168 25.7297 14.1502C25.9934 14.3519 26.3175 14.4549 26.6473 14.4418C27.1061 14.4418 27.6223 14.2085 27.9664 13.8585C28.1515 13.6902 28.2987 13.4831 28.3977 13.2515C28.4967 13.02 28.5452 12.7693 28.54 12.5168C28.0887 12.1962 27.5391 12.0512 26.9914 12.1085C26.5326 12.1085 26.1311 12.2252 25.8444 12.4585C25.5003 12.6918 25.3282 12.9835 25.3282 13.3335ZM36.1105 8.84183L32.2105 18.1752H31.0061L32.44 14.9085L29.8591 8.84183H31.1208L33.0135 13.5085L34.8488 8.84183H36.1105Z" fill="white"/>
<path d="M14.6032 10.65L14.5458 9.54163H9.55612V11.6416H12.4238C12.3602 11.9747 12.2308 12.2912 12.0435 12.5719C11.8562 12.8526 11.6149 13.0918 11.3341 13.275V14.675H13.0547C14.0297 13.6833 14.6032 12.3416 14.6032 10.65Z" fill="white"/>
<path d="M9.55642 15.9585C10.9902 15.9585 12.1947 15.4918 12.9976 14.6751L11.3344 13.2751C10.8755 13.6251 10.302 13.8585 9.61377 13.8585C8.93618 13.847 8.28024 13.6138 7.74309 13.1936C7.20595 12.7733 6.81614 12.1883 6.63142 11.5251H4.91083V12.9835C5.33702 13.8693 5.99742 14.6169 6.81798 15.1424C7.63853 15.6679 8.58679 15.9505 9.55642 15.9585Z" fill="white"/>
<path d="M6.63113 11.5833C6.40809 10.9016 6.40809 10.1649 6.63113 9.48325V8.08325H4.91054C4.53258 8.84273 4.33563 9.68202 4.33563 10.5333C4.33563 11.3845 4.53258 12.2238 4.91054 12.9833L6.63113 11.5833Z" fill="white"/>
<path d="M9.55642 7.26661C9.92745 7.26121 10.2959 7.33059 10.6404 7.47076C10.9849 7.61092 11.2988 7.8191 11.5638 8.08328L13.1123 6.50828C12.1436 5.60787 10.8681 5.12664 9.55642 5.16661C7.60642 5.16661 5.82847 6.33328 4.91083 8.08328L6.63142 9.48328C6.83319 8.85118 7.22299 8.2984 7.74695 7.90133C8.27092 7.50425 8.90319 7.28246 9.55642 7.26661Z" fill="white"/>
</svg>
