<svg width="38" height="22" viewBox="0 0 38 22" fill="none" xmlns="http://www.w3.org/2000/svg">
<path d="M19.6292 9.07473C19.6292 10.3581 20.7855 11.1164 21.5948 11.5247C22.462 11.9914 22.7511 12.2831 22.7511 12.6914C22.7511 13.2747 22.0573 13.5081 21.4214 13.5664C20.2651 13.5664 19.687 13.2164 19.1089 12.9831L18.7042 14.9664C19.2823 15.1997 20.2073 15.4331 21.1901 15.4331C23.5605 15.4331 25.1214 14.2664 25.1214 12.3414C25.1214 10.0081 21.9417 9.83306 21.9995 8.78306C21.9995 8.43306 22.2886 8.08306 22.9245 8.02473C23.2714 7.9664 24.0808 7.90806 25.1214 8.43306L25.5261 6.50806C24.8632 6.24366 24.1576 6.10522 23.4448 6.09973C21.1901 6.09973 19.6292 7.32473 19.6292 9.07473ZM29.3417 6.33306C28.8792 6.33306 28.5323 6.5664 28.3589 6.97473L25.0058 15.3747H27.3183L27.8386 13.9164H30.7292L30.9605 15.3164H33.0417L31.2495 6.27473H29.3417M29.573 8.6664L30.2667 12.0497H28.4167L29.573 8.6664ZM16.8542 6.27473L15.0042 15.3164H17.2589L19.1089 6.27473H16.7964M13.5589 6.27473L11.2464 12.3997L10.2636 7.14973C10.148 6.5664 9.68545 6.27473 9.22295 6.27473H5.2917L5.23389 6.50806C6.04326 6.68306 6.91045 6.97473 7.43076 7.2664C7.77764 7.49973 7.89326 7.6164 8.00889 8.08306L9.74326 15.3164H12.2292L15.8714 6.27473H13.5589Z" fill="white"/>
</svg>
