<svg width="155" height="112" viewBox="0 0 155 112" fill="none" xmlns="http://www.w3.org/2000/svg">
<path d="M0 111.289V80.3906C4.10156 80.3906 7.65625 80.1172 10.6641 79.5703C13.763 79.0234 16.1784 78.112 17.9102 76.8359C19.8242 75.3776 21.3281 73.9648 22.4219 72.5977C23.5156 70.7747 24.3359 68.6328 24.8828 66.1719C25.4297 63.2552 25.7031 60.8398 25.7031 58.9258C25.7943 58.1966 25.8398 57.0573 25.8398 55.5078C25.931 54.0495 25.9766 52.181 25.9766 49.9023H0.273438V0H70C72.0964 15.1302 73.1445 27.7539 73.1445 37.8711C73.1445 63.2096 67.2656 81.7578 55.5078 93.5156C43.5677 105.365 25.0651 111.289 0 111.289Z" fill="#ECECEC"/>
<path d="M81.4844 111.289V80.3906C85.5859 80.3906 89.1406 80.1172 92.1484 79.5703C95.2474 79.0234 97.6628 78.112 99.3945 76.8359C101.309 75.3776 102.812 73.9648 103.906 72.5977C105 70.7747 105.82 68.6328 106.367 66.1719C106.914 63.2552 107.188 60.8398 107.188 58.9258C107.279 58.1966 107.324 57.0573 107.324 55.5078C107.415 54.0495 107.461 52.181 107.461 49.9023H81.7578V0H151.484C153.581 15.1302 154.629 27.7539 154.629 37.8711C154.629 63.2096 148.75 81.7578 136.992 93.5156C125.052 105.365 106.549 111.289 81.4844 111.289Z" fill="#ECECEC"/>
</svg>
