<svg width="682" height="203" viewBox="0 0 682 203" fill="none" xmlns="http://www.w3.org/2000/svg">
<path d="M37.9629 147.701H79.0432L121.235 199.217H165.254L119.617 143.932C123.738 142.506 127.662 140.713 131.375 138.539C135.087 136.365 138.35 133.711 141.163 130.548C143.962 127.386 146.198 123.617 147.857 119.198C149.517 114.779 150.347 109.626 150.347 103.725C150.347 97.005 149.348 90.9202 147.351 85.4426C145.354 79.9791 142.147 75.3203 137.717 71.438C133.287 67.5697 127.535 64.5767 120.475 62.4732C113.415 60.3697 104.808 59.3109 94.6681 59.3109H0.342285V199.202H37.9629V147.701ZM111.249 110.445C110.532 112.351 109.309 113.89 107.551 115.075C105.793 116.261 103.444 117.137 100.505 117.673C97.5653 118.224 93.8946 118.492 89.4926 118.492H37.9629V88.5626H89.4926C93.8946 88.5626 97.5512 88.8308 100.505 89.3814C103.444 89.9179 105.793 90.7932 107.551 91.9791C109.309 93.165 110.546 94.7178 111.249 96.6096C111.953 98.5155 112.318 100.817 112.318 103.527C112.304 106.238 111.953 108.539 111.249 110.445ZM324.963 199.217V106.464C324.963 97.8379 322.952 90.412 318.929 84.172C314.907 77.932 309.324 72.765 302.193 68.6991C295.063 64.6191 286.554 61.6262 276.682 59.6921C266.809 57.758 256.022 56.7839 244.321 56.7839C238.372 56.7839 232.156 57.0379 225.658 57.5462C219.175 58.0544 212.748 58.7321 206.391 59.5791C200.034 60.4262 193.916 61.4285 188.038 62.5862C182.159 63.7438 176.843 64.9297 172.117 66.1438V99.7438C176.646 97.9791 181.681 96.285 187.222 94.6473C192.763 93.0238 198.628 91.5979 204.816 90.3696C211.004 89.1555 217.431 88.1814 224.083 87.4755C230.749 86.7555 237.486 86.4026 244.321 86.4026C252.97 86.4026 260.086 86.9532 265.67 88.0262C271.253 89.1132 275.641 90.525 278.862 92.2473C282.068 93.9838 284.29 95.9744 285.5 98.2614C286.723 100.534 287.328 102.821 287.328 105.137V108.087C265.29 109.315 246.205 111.01 230.074 113.184C213.943 115.358 200.611 118.45 190.063 122.445C179.515 126.454 171.667 131.593 166.534 137.861C161.401 144.144 158.827 151.993 158.827 161.438C158.827 168.906 160.473 175.217 163.749 180.369C167.026 185.522 171.372 189.701 176.787 192.892C182.201 196.082 188.403 198.384 195.393 199.809C202.397 201.235 209.64 201.941 217.15 201.941C223.577 201.941 229.948 201.588 236.262 200.868C242.591 200.148 248.723 199.089 254.672 197.664C260.621 196.238 266.345 194.501 271.858 192.468C277.371 190.435 282.518 188.092 287.328 185.438V199.188H324.963V199.217ZM287.328 153.814C283.671 156.398 279.537 158.826 274.91 161.099C270.283 163.372 265.332 165.348 260.058 167C254.784 168.666 249.201 169.965 243.322 170.925C237.444 171.871 231.424 172.351 225.264 172.351C219.723 172.351 215.124 172.012 211.468 171.334C207.811 170.657 204.886 169.739 202.692 168.581C200.498 167.424 198.951 166.082 198.079 164.558C197.193 163.033 196.757 161.452 196.757 159.828C196.757 158.473 196.982 156.977 197.418 155.353C197.854 153.73 199.021 152.092 200.92 150.468C202.819 148.845 205.674 147.25 209.485 145.682C213.31 144.115 218.556 142.661 225.25 141.306C231.945 139.951 240.341 138.765 250.453 137.748C260.565 136.732 272.842 135.955 287.314 135.405V153.814H287.328ZM294.233 27.2639L246.67 0.186279L199.106 27.2639L211.383 46.4074L246.684 28.0827L281.984 46.4074L294.233 27.2639ZM500.169 87.8426C498.144 82.012 494.881 76.972 490.381 72.7226C485.881 68.4873 480.044 65.1838 472.886 62.8403C465.713 60.4968 456.993 59.325 446.713 59.325H346.607V199.217H384.242V155.028H446.713C456.993 155.028 465.713 153.843 472.886 151.471C480.058 149.099 485.881 145.781 490.381 141.546C494.881 137.311 498.144 132.243 500.169 126.37C502.194 120.497 503.207 114.073 503.207 107.071C503.207 100.097 502.194 93.6732 500.169 87.8426ZM463.8 115.937C462.886 118.181 461.381 119.988 459.286 121.386C457.19 122.784 454.448 123.758 451.073 124.337C447.697 124.915 443.534 125.198 438.598 125.198H384.242V89.1555H438.598C443.534 89.1555 447.697 89.5085 451.073 90.2285C454.448 90.9344 457.19 92.0496 459.286 93.532C461.381 95.0284 462.886 96.9484 463.8 99.2779C464.715 101.621 465.165 104.417 465.165 107.678C465.179 110.953 464.715 113.706 463.8 115.937ZM670.538 159.617C667.697 161.311 663.956 163.005 659.329 164.713C654.702 166.407 649.513 167.96 643.761 169.344C638.009 170.741 631.82 171.857 625.196 172.704C618.572 173.551 611.808 173.974 604.916 173.974C595.184 173.974 586.816 173.254 579.813 171.828C572.809 170.402 566.916 168.398 562.106 165.828C557.31 163.245 553.499 160.125 550.701 156.468C547.888 152.798 545.877 148.76 544.667 144.355H682V134.981C682 122.148 679.919 110.826 675.77 100.972C671.607 91.132 665.756 82.845 658.218 76.125C650.68 69.405 641.651 64.3368 631.145 60.9062C620.626 57.4756 609.051 55.7673 596.408 55.7673C582.682 55.7673 570.235 57.645 559.083 61.4144C547.93 65.1838 538.409 70.4074 530.533 77.0991C522.657 83.7909 516.568 91.6544 512.278 100.718C507.989 109.781 505.837 119.607 505.837 130.195C505.837 141.603 507.961 151.809 512.222 160.845C516.483 169.88 522.671 177.504 530.786 183.758C538.901 189.998 548.886 194.769 560.756 198.059C572.626 201.348 586.169 203 601.372 203C613.27 203 624.915 202.167 636.307 200.501C647.698 198.835 659.104 196.111 670.538 192.313V159.617ZM544.667 116.657C545.342 113.607 546.833 110.275 549.125 106.675C551.418 103.075 554.652 99.7156 558.815 96.5956C562.978 93.4756 568.126 90.8637 574.285 88.7602C580.431 86.6567 587.745 85.612 596.197 85.612C605.184 85.612 612.694 86.572 618.713 88.5061C624.732 90.4402 629.598 92.8967 633.311 95.8897C637.024 98.8826 639.752 102.214 641.482 105.913C643.212 109.612 644.239 113.198 644.576 116.657H544.667ZM622.763 0.581614L573.976 29.0851L583.104 46.3933L636.04 27.4615L622.763 0.581614Z" fill="#9DB0BA"/>
</svg>
