<svg width="17" height="16" viewBox="0 0 17 16" fill="none" xmlns="http://www.w3.org/2000/svg">
<path d="M13.2857 9.36014C13.0806 9.5589 12.9864 9.84636 13.0331 10.1283L13.7371 14.0244C13.7965 14.3546 13.6571 14.6888 13.3808 14.8796C13.1099 15.0776 12.7496 15.1013 12.4543 14.943L8.94698 13.1137C8.82503 13.0488 8.68962 13.0139 8.55104 13.01H8.33643C8.262 13.021 8.18914 13.0448 8.12262 13.0812L4.61455 14.9192C4.44113 15.0063 4.24474 15.0372 4.05231 15.0063C3.58351 14.9176 3.27071 14.471 3.34753 13.9998L4.05231 10.1037C4.09903 9.81944 4.0048 9.5304 3.7997 9.32846L0.940182 6.55685C0.701031 6.32483 0.617883 5.97639 0.727164 5.66201C0.833277 5.34843 1.1041 5.11957 1.43115 5.0681L5.36685 4.49714C5.66618 4.46626 5.92909 4.28413 6.06371 4.01488L7.79795 0.459296C7.83913 0.380107 7.89218 0.307253 7.95633 0.245486L8.0276 0.190054C8.06482 0.148875 8.10758 0.114824 8.15509 0.0871079L8.24141 0.0554323L8.37603 0H8.70941C9.00716 0.0308837 9.26928 0.209059 9.40628 0.475134L11.1635 4.01488C11.2902 4.27383 11.5365 4.45359 11.8208 4.49714L15.7564 5.0681C16.089 5.11561 16.367 5.34526 16.4771 5.66201C16.5808 5.97956 16.4913 6.32799 16.2474 6.55685L13.2857 9.36014Z" fill="#BDCD00"/>
</svg>
