<svg width="46" height="46" viewBox="0 0 46 46" fill="none" xmlns="http://www.w3.org/2000/svg">
<path d="M36.4173 23C36.4173 23.5084 36.2154 23.9959 35.8559 24.3553C35.4965 24.7148 35.009 24.9167 34.5007 24.9167C33.9923 24.9167 33.5048 24.7148 33.1454 24.3553C32.7859 23.9959 32.584 23.5084 32.584 23C32.584 22.4917 32.7859 22.0042 33.1454 21.6448C33.5048 21.2853 33.9923 21.0834 34.5007 21.0834C35.009 21.0834 35.4965 21.2853 35.8559 21.6448C36.2154 22.0042 36.4173 22.4917 36.4173 23Z" fill="#BDCD00"/>
<path fill-rule="evenodd" clip-rule="evenodd" d="M19.06 6.22913H25.0247C28.5475 6.22913 31.3382 6.22913 33.5212 6.52238C35.7676 6.82521 37.5865 7.46154 39.0221 8.89521C40.7931 10.6681 41.3585 13.041 41.5636 16.121C42.6695 16.606 43.5052 17.6352 43.5952 18.9385C43.6048 19.0555 43.6048 19.18 43.6048 19.295V26.7049C43.6048 26.8199 43.6048 26.9445 43.5971 27.0595C43.5051 28.3628 42.6695 29.394 41.5636 29.8808C41.3585 32.959 40.7931 35.3318 39.0221 37.1047C37.5865 38.5384 35.7676 39.1747 33.5212 39.4775C31.3362 39.7708 28.5475 39.7708 25.0247 39.7708H19.06C15.5372 39.7708 12.7465 39.7708 10.5634 39.4775C8.31707 39.1747 6.49815 38.5384 5.06257 37.1047C3.6289 35.6691 2.99257 33.8502 2.68973 31.6039C2.39648 29.4189 2.39648 26.6301 2.39648 23.1073V22.8926C2.39648 19.3698 2.39648 16.5791 2.68973 14.396C2.99257 12.1497 3.6289 10.3308 5.06257 8.89521C6.49815 7.46154 8.31707 6.82521 10.5634 6.52238C12.7484 6.22913 15.5372 6.22913 19.06 6.22913ZM38.656 30.1875H34.9415C30.8302 30.1875 27.3112 27.0671 27.3112 23C27.3112 18.9328 30.8302 15.8125 34.9396 15.8125H38.6541C38.4356 13.2422 37.943 11.8833 36.9866 10.9288C36.1758 10.118 35.0642 9.63121 33.136 9.37246C31.1676 9.10796 28.5705 9.10413 24.9154 9.10413H19.1654C15.5103 9.10413 12.9152 9.10796 10.9429 9.37246C9.01665 9.63121 7.90498 10.118 7.09423 10.9288C6.28348 11.7395 5.79665 12.8512 5.5379 14.7794C5.2734 16.7497 5.26957 19.3449 5.26957 23C5.26957 26.655 5.2734 29.2521 5.5379 31.2225C5.79665 33.1487 6.28348 34.2604 7.09423 35.0711C7.90498 35.8819 9.01665 36.3687 10.9448 36.6275C12.9152 36.892 15.5103 36.8958 19.1654 36.8958H24.9154C28.5705 36.8958 31.1676 36.892 33.1379 36.6275C35.0641 36.3687 36.1758 35.8819 36.9866 35.0711C37.943 34.1166 38.4375 32.7596 38.656 30.1875ZM10.0632 15.3333C10.0632 14.952 10.2146 14.5864 10.4842 14.3168C10.7538 14.0472 11.1194 13.8958 11.5007 13.8958H19.1673C19.5486 13.8958 19.9142 14.0472 20.1838 14.3168C20.4534 14.5864 20.6048 14.952 20.6048 15.3333C20.6048 15.7145 20.4534 16.0802 20.1838 16.3498C19.9142 16.6193 19.5486 16.7708 19.1673 16.7708H11.5007C11.1194 16.7708 10.7538 16.6193 10.4842 16.3498C10.2146 16.0802 10.0632 15.7145 10.0632 15.3333ZM40.105 18.6875H34.9415C32.2121 18.6875 30.1862 20.7172 30.1862 23C30.1862 25.2827 32.2122 27.3125 34.9396 27.3125H40.1491C40.5439 27.2875 40.7145 27.0211 40.7279 26.8601V19.1398C40.7145 18.9788 40.5439 18.7124 40.1491 18.6894L40.105 18.6875Z" fill="#BDCD00"/>
</svg>
